<?xml version="1.0" encoding="utf-8"?>
<!-- Generator: Adobe Illustrator 23.0.3, SVG Export Plug-In . SVG Version: 6.00 Build 0)  -->
<svg version="1.1" id="圖層_1" xmlns="http://www.w3.org/2000/svg" xmlns:xlink="http://www.w3.org/1999/xlink" x="0px" y="0px"
	 viewBox="0 0 215 70" style="enable-background:new 0 0 215 70;" xml:space="preserve">
<style type="text/css">
	.st0{fill:#F3C74E;}
</style>
<g>
	<ellipse class="st0" cx="34.4" cy="17.9" rx="11.3" ry="2.5"/>
	<g>
		<g>
			<g>
				<path d="M199.3,35.7l-1.6-1.3l-1.1,1.3h-5v-0.6c0-0.5,0.4-0.9,0.9-0.9h4.7c0.3,0,0.5-0.1,0.5-0.3c-1.2-1-1.8-1.5-1.8-1.5l-1,1.2
					h-3.3V33c0-0.5,0.4-0.9,0.9-0.9h5.6c0.3,0,0.5-0.1,0.5-0.3c-0.1-0.1-0.2-0.2-0.3-0.3l-1.6-1.3l-1,1.3h-4v-1c0,0,0,0,0,0
					c0.4-0.1,0.6-0.3,0.7-0.5l-2.5-0.2v1.8h-6.6l0.1,0.6h6.4v1.6h-5.7l0.1,0.5h5.6v1.5h-19.6c0,0,0,0,0,0l-1.8-1.5l-1.2,1.6H167
					h-2.2h-2h-1.9H158h-0.5h-2.8h-1.7H82.9V33c0-0.3,0.2-0.7,0.5-0.8c0.1-0.1,0.2-0.1,0.3-0.2l-1.9-1.5l-0.9,1H70.3l-2-0.8v11.6h0.3
					c0.3,0,0.6-0.1,0.9-0.2c0.4-0.1,0.7-0.3,0.7-0.4v0c0-0.5,0.4-0.9,0.9-0.9h3.5v6.9H75c0.4,0,0.7-0.1,1-0.2
					c0.3-0.1,0.5-0.3,0.5-0.4v-5.4c0-0.5,0.4-0.9,0.9-0.9H81v1.3h0.3c0.2,0,0.5,0,0.8-0.1c0.5-0.1,0.8-0.3,0.8-0.4v-5.1h70.3h1.5
					h2.5h0.4h0c0.7,2.4,1.7,4.5,3.1,6.2c-2,2-4.6,3.6-7.9,4.8l0.1,0.2c3.2-0.8,5.8-2,8-3.6c0.4-0.3,0.9-0.2,1.2,0.1
					c1.7,1.5,3.8,2.7,6.4,3.5c0.4-0.9,1-1.4,2-1.5l0-0.2c-3.1-0.7-5.7-1.9-7.7-3.4c1.5-1.5,2.7-3.3,3.6-5.5c0.1-0.4,0.5-0.6,0.9-0.6
					h7.1h11.3v11.2h0.3c0.3,0,0.6,0,0.9-0.1c0.4-0.2,0.7-0.3,0.7-0.4v-3.5c0-0.5,0.4-0.9,0.9-0.9h5.8v2.8c0,0.2-0.2,0.4-0.4,0.4
					c-1.7-0.1-2.5-0.2-2.5-0.2v0.3c0.8,0.1,1.4,0.3,1.8,0.6c0.2,0.2,0.4,0.6,0.4,1.2c0.9-0.1,1.6-0.3,2-0.5c0.4-0.3,0.6-0.8,0.6-1.6
					v-8.2c0-0.5,0.4-0.9,0.9-0.9h0.4h1.6c0.3,0,0.5-0.1,0.5-0.3C199.5,35.9,199.4,35.8,199.3,35.7z M74.6,40.1h-4.4v-2.9
					c0-0.5,0.4-0.9,0.9-0.9h3.5V40.1z M74.6,35.7h-4.4V33c0-0.5,0.4-0.9,0.9-0.9h3.5V35.7z M77.4,32H81v3.7h-4.5V33
					C76.5,32.4,76.9,32,77.4,32z M81,40.1h-4.5v-2.9c0-0.5,0.4-0.9,0.9-0.9H81V40.1z M161.8,41.4c-1.5-1.4-2.7-3.1-3.5-5.1h6.3
					C163.9,38.2,163,39.9,161.8,41.4z M189.9,36.3v3.2h-2.3v-2.3c0-0.5,0.4-0.9,0.9-0.9H189.9z M194.3,41.9h-6.8V41
					c0-0.5,0.4-0.9,0.9-0.9h5.8V41.9z M194.3,39.5h-2.6v-2.3c0-0.5,0.4-0.9,0.9-0.9h1.7V39.5z"/>
				<path d="M162.2,34.3c0.3-0.1,0.5-0.3,0.5-0.4v-1.9v-1.5c0,0,0,0,0,0c0.4-0.1,0.6-0.2,0.7-0.5l-2.6-0.2v2.2v1.9v0.6h0.3
					C161.5,34.5,161.9,34.4,162.2,34.3z"/>
			</g>
			<g>
				<path d="M74.8,49.1c0.7,0.1,1.6,0.2,2.5,0.2c0.5,0,1,0,1.4-0.1c0.1,0,0.2,0,0.2-0.1c0.1,0,0.1-0.1,0.1-0.1c0,0,0-0.1,0-0.1
					c0,0-0.1-0.1-0.2-0.1c-0.1,0-0.1,0-0.2,0c-0.6,0.1-1.2,0.1-1.8,0c-0.6,0-1.2-0.1-1.7-0.2c-0.1,0-0.1,0-0.2,0
					c-0.1,0-0.1,0-0.2,0.1c-0.1,0-0.1,0.1-0.1,0.1c0,0,0,0.1,0,0.1C74.6,49.1,74.7,49.1,74.8,49.1z"/>
				<path d="M84.1,54.5c0.1,0,0.1,0,0.2,0c0,0,0.1,0,0.1,0c0.1,0,0.3-0.1,0.3-0.2c0.1,0,0.1-0.1,0.1-0.1c0.1,0,0.1-0.1,0.1-0.1
					c0,0,0-0.1-0.1-0.1c0,0-0.1-0.1-0.2-0.1c-0.1,0-0.1,0-0.2,0c-0.1,0-0.1,0-0.2,0.1c0,0,0,0-0.1,0.1c0,0-0.1,0.1-0.1,0.1
					C84,54.2,84,54.2,84,54.3c0,0,0,0.1,0,0.1C84,54.4,84.1,54.5,84.1,54.5z"/>
				<path d="M102.2,54.8L102.2,54.8c-0.1,0-0.1,0-0.1,0c0,0,0,0,0,0l-0.1,0c-0.1,0-0.1,0-0.2,0c-1.4,0.5-2.6,0.7-3.6,0.7
					c-0.7,0-1.2-0.2-1.7-0.6c-0.1-0.1-0.2-0.1-0.2-0.1c-0.1,0-0.3,0-0.5,0c-0.2,0-0.5,0.1-1.1,0.2c-0.2,0-0.4,0.1-0.6,0.1l0,0
					c-0.1,0-0.4,0.1-0.7,0.1c-0.3,0.1-0.5,0.1-0.7,0.1c-0.2,0-0.4,0.1-0.7,0.1c-0.3,0-0.5,0.1-0.7,0.1c-0.2,0-0.4,0-0.6,0
					c-0.2,0-0.3,0-0.4,0c0,0,0,0-0.1,0c0.1-0.1,0.2-0.2,0.6-0.3c0,0,0,0,0,0c0,0,0.1,0,0.1,0c0.4-0.2,0.8-0.3,1.3-0.4
					c0.5-0.1,1-0.2,1.5-0.2c0.5,0,0.9,0,1.2,0.1c0.1,0,0.1,0,0.2,0c0.1,0,0.1,0,0.2,0c0.1,0,0.2-0.1,0.2-0.1c0,0,0-0.1,0-0.1
					c0,0,0-0.1-0.1-0.1c-0.4-0.2-1-0.3-1.8-0.2c-0.5,0-1.1,0.1-1.7,0.3c-0.6,0.1-1.1,0.3-1.6,0.5c0,0,0,0,0,0
					c-0.4,0.1-0.9,0.2-1.5,0.3c-0.7,0.1-1.4,0.2-2,0.3c-0.7,0.1-1.3,0.1-1.8,0c-0.5-0.1-0.7-0.2-0.6-0.4c0-0.1,0-0.1-0.1-0.2
					c0,0-0.1,0-0.1,0c0,0,0,0,0,0c0,0,0,0,0,0c0,0-0.1,0-0.1,0c0,0-0.1,0-0.1,0c-1.2,0.1-2.5,0.4-3.9,0.7c0.2-0.2,0.4-0.5,0.6-0.7
					c0.2-0.3,0.4-0.7,0.6-1.1c0.1-0.4,0.2-0.8,0.2-1.1c0-0.4-0.1-0.7-0.3-1c-0.2-0.3-0.5-0.6-1-0.8c-1.1-0.6-2.9-0.8-5.2-0.7
					c-1.3,0-2.5,0.2-3.6,0.3c-1.1,0.2-2.2,0.4-3.5,0.7c-1.5,0.3-2.8,0.9-4,1.7c-0.4,0.3-0.7,0.5-0.7,0.8c0,0.2,0,0.5,0.4,0.7
					c0.3,0.2,0.8,0.3,1.4,0.4c0.6,0.1,1.3,0.2,2.1,0.2c0.1,0,0.2,0,0.2,0c0.1,0,0.2-0.1,0.2-0.1c0,0,0-0.1-0.1-0.2
					c-0.1,0-0.1,0-0.2,0c-0.7,0-1.3-0.1-1.8-0.2c-0.5-0.1-0.9-0.2-1.1-0.3c-0.3-0.2-0.3-0.3-0.3-0.4c0-0.1,0.1-0.3,0.5-0.6
					c1.1-0.7,2.4-1.3,3.8-1.6c1.2-0.3,2.3-0.5,3.3-0.7c1-0.1,2.2-0.2,3.4-0.3c2.1-0.1,3.7,0.1,4.7,0.6c0.3,0.1,0.5,0.3,0.7,0.5
					c0.2,0.2,0.3,0.4,0.4,0.6c0.1,0.2,0.1,0.4,0.1,0.7c0,0.2-0.1,0.5-0.2,0.7c-0.1,0.2-0.2,0.5-0.4,0.8c-0.2,0.3-0.3,0.5-0.5,0.8
					c-0.2,0.2-0.4,0.5-0.6,0.7c-1.1,0.3-2.1,0.6-3.1,0.9c-1,0.3-1.9,0.7-2.6,1c0,0-0.1,0-0.1,0l-0.1,0c-0.1,0.1-0.2,0.1-0.3,0.1
					c-0.1,0-0.2,0.1-0.3,0.1c-0.1,0.1-0.2,0.1-0.3,0.2c-0.1,0.1-0.2,0.1-0.2,0.2c-0.1,0.1-0.1,0.2-0.2,0.3c0,0.1,0,0.2,0.1,0.3
					c0.1,0.1,0.2,0.1,0.3,0.2c0.2,0.1,0.4,0.1,0.7,0.1c0,0,0.1,0,0.2,0c0.3,0,0.7-0.1,1.1-0.2c0.4-0.1,0.8-0.3,1.3-0.5
					c0.4-0.2,0.8-0.4,1.2-0.6c0.4-0.2,0.8-0.4,1.1-0.6c0.5-0.3,1.1-0.7,1.6-1.2c1.5-0.4,2.9-0.7,4.2-0.9c0.1,0.3,0.5,0.5,1.1,0.6
					c0.3,0,0.6,0.1,1,0.1c0.8,0,1.7-0.1,2.7-0.2c0.4-0.1,0.7-0.1,1-0.2c0,0.1,0,0.1,0,0.1c0.1,0.1,0.2,0.2,0.5,0.3
					c0.2,0,0.5,0.1,0.8,0.1c0.3,0,0.6,0,1-0.1c0.3,0,0.7-0.1,1.2-0.2c0.4-0.1,0.8-0.1,1-0.2c0.3,0,0.6-0.1,1-0.2
					c0.4-0.1,0.8-0.1,0.9-0.2c0.1,0,0.1,0.1,0.1,0.1c0.1,0,0.1,0.1,0.3,0.2c0.1,0.1,0.3,0.1,0.4,0.2c0.1,0,0.3,0.1,0.6,0.1
					c0.2,0,0.5,0.1,0.7,0.1c1.1,0.1,2.5-0.2,4.1-0.8c0.1-0.1,0.1-0.2,0.1-0.2C102.4,54.8,102.3,54.8,102.2,54.8z M72.8,58.6
					L72.8,58.6C72.8,58.6,72.8,58.6,72.8,58.6c0.1-0.1,0.2-0.2,0.3-0.3c0.1-0.1,0.3-0.1,0.3-0.2c0.1,0,0.2-0.1,0.3-0.2
					C73.9,58,74,58,74,58c0.6-0.3,1.4-0.6,2.2-0.9c0.7-0.2,1.4-0.5,2.2-0.7c-0.3,0.2-0.6,0.4-0.9,0.6c-0.9,0.5-1.8,0.9-2.5,1.2
					c-0.7,0.3-1.3,0.5-1.8,0.5c-0.1,0-0.2,0-0.3,0C72.9,58.7,72.8,58.6,72.8,58.6z"/>
				<path d="M130.9,53c-0.3,0-0.5,0-0.8,0.1c-0.3,0.1-0.5,0.2-0.7,0.4c-0.1,0.1-0.2,0.1-0.2,0.2c-0.1,0.1-0.1,0.2-0.2,0.3
					c0,0.1-0.1,0.3,0.1,0.5c0.1,0.1,0.2,0.2,0.4,0.3c-0.5,0.4-1.2,0.7-1.8,1.1c-0.8,0.4-1.5,0.7-2.3,1c-0.8,0.3-1.5,0.4-1.9,0.4
					c-0.6,0-1-0.1-1.4-0.3c-0.2-0.1-0.4-0.3-0.5-0.5c-0.1-0.2-0.2-0.4-0.1-0.6c0-0.2,0-0.4,0.1-0.6c0.4-0.2,0.6-0.3,0.8-0.4
					c0.5-0.3,0.8-0.6,1-0.8c0.2-0.2,0.2-0.3,0.2-0.5c0-0.1-0.1-0.1-0.2-0.2c-0.1-0.1-0.2-0.1-0.4-0.1c-0.4,0-0.8,0.2-1.3,0.6
					c-0.4,0.3-0.6,0.7-0.8,1.2l0,0c-0.1,0-0.3,0.1-0.6,0.3c-2,1-3.6,1.8-4.9,2.2c-1.2,0.5-2,0.7-2.5,0.6c-0.1,0-0.3-0.1-0.4-0.1
					c-0.1,0-0.1-0.1-0.2-0.2c0-0.1-0.1-0.2,0-0.3c0-0.1,0.1-0.3,0.3-0.6c0.2-0.3,0.4-0.6,0.7-0.9c0.3-0.3,0.7-0.8,1.2-1.2
					c0.5-0.5,1.1-1,1.8-1.6c0.1-0.1,0.2-0.1,0.3-0.2l0.3-0.1c0,0,0.2-0.1,1.3-0.7c0.1,0,0.1-0.1,0.1-0.1c0,0,0-0.1-0.1-0.1
					c0,0-0.1-0.1-0.2-0.1c-0.1,0-0.3,0-0.5,0.1c-0.2,0.1-0.4,0.1-0.6,0.2c-0.2,0.1-0.3,0.2-0.5,0.3c-0.1,0.1-0.3,0.2-0.4,0.3
					c-0.7,0.3-1.6,0.6-2.7,0.9c0,0-0.2,0-0.2,0.2c0,0,0,0.1,0.1,0.2c0.1,0,0.1,0,0.2,0c0.1,0,0.2,0,0.2,0c0.4-0.1,0.8-0.3,1.2-0.4
					c-0.5,0.4-0.9,0.8-1.3,1.2c-0.5,0.5-0.9,0.9-1.2,1.2c-0.3,0.3-0.5,0.7-0.7,0.9c-0.2,0.3-0.3,0.5-0.3,0.7c0,0.2,0,0.4,0.1,0.5
					c0.1,0.1,0.2,0.2,0.4,0.3c0.1,0.1,0.3,0.1,0.5,0.1c0.1,0,0.3,0,0.4,0c0.3,0,0.6,0,0.9-0.1c0.4-0.1,0.7-0.2,1.1-0.3
					c0.4-0.1,0.8-0.3,1.3-0.5c0.4-0.2,0.9-0.4,1.4-0.6c0.5-0.2,1-0.5,1.4-0.7c0.4-0.2,0.9-0.4,1.5-0.7c-0.1,0.7,0.2,1.2,0.8,1.6
					c0.4,0.3,1.1,0.4,1.8,0.4c0.7,0,1.5-0.1,2.4-0.4c0.5-0.2,1-0.4,1.6-0.6c0.5-0.2,1.1-0.5,1.5-0.8c0.5-0.3,0.9-0.5,1.3-0.8
					c0.1,0,0.2,0,0.3,0c0.1-0.1,0.1-0.2,0.1-0.2c0,0,0-0.1,0-0.1c0.8-0.6,1.1-1,1-1.3C131.4,53.1,131.3,53.1,130.9,53z M129.7,54.2
					c0-0.1,0-0.1,0-0.2c0-0.1,0.1-0.1,0.1-0.2c0,0,0.1-0.1,0.2-0.1c0.1-0.1,0.2-0.1,0.3-0.2c0.1-0.1,0.2-0.1,0.3-0.1
					c0.1,0,0.1,0,0.1,0c0,0.1-0.1,0.3-0.9,1C129.8,54.3,129.8,54.3,129.7,54.2z M121.9,54.3c0.1-0.1,0.2-0.2,0.3-0.3c0,0,0,0,0,0
					c0.1-0.1,0.3-0.2,0.4-0.3c0,0,0,0-0.1,0.1C122.4,53.9,122.2,54.1,121.9,54.3z"/>
				<path d="M152.9,54.8c-0.1,0-0.1,0-0.2,0c-0.1,0-0.2,0-0.2,0c-1.7,0.4-2.9,0.6-3.8,0.6c-0.1,0-0.3,0-0.4,0
					c-0.1,0-0.2-0.1-0.3-0.1c-0.1,0-0.2-0.1-0.3-0.1c-0.1,0-0.2-0.1-0.2-0.1c-0.1,0-0.1-0.1-0.2-0.1l-0.2-0.1c0,0-0.1-0.1-0.2-0.1
					c-0.1,0-0.2-0.1-0.2-0.1l-0.2-0.1c-0.1,0-0.2-0.1-0.3-0.1c-0.1,0-0.2,0-0.3,0c-0.1,0-0.2,0-0.4,0c-0.1,0-0.3,0-0.4,0
					c-0.2,0-0.4,0.1-0.7,0.1c-0.3,0.1-0.5,0.1-0.6,0.2c-0.2,0-0.4,0.1-0.7,0.2c-0.2,0.1-0.4,0.1-0.5,0.2c-0.1,0-0.3,0.1-0.5,0.1
					c-0.2,0.1-0.4,0.1-0.6,0.1c-0.2,0-0.3,0-0.5,0.1c-0.2,0-0.4,0-0.5,0c-0.3,0-0.4,0-0.4-0.1c0,0,0,0,0,0c0,0,0,0,0,0
					c0,0,0-0.1,0-0.1c0,0,0-0.1,0-0.1c0-0.1,0-0.2-0.1-0.2c-0.1,0-0.1,0-0.2,0c0,0,0,0,0,0c0,0,0,0,0,0l-0.1,0c-0.1,0-0.2,0-0.2,0
					c-0.2,0.1-0.6,0.2-1,0.3c-0.4,0.1-0.9,0.2-1.4,0.2c-0.5,0.1-1,0.1-1.5,0.1c-0.5,0-1,0-1.4,0c-0.7-0.1-1-0.2-1.2-0.3
					c0.2,0,0.4-0.1,0.5-0.1c0.3,0,0.5-0.1,0.8-0.2c0.3-0.1,0.5-0.1,0.7-0.2c0.2-0.1,0.4-0.2,0.5-0.3c0.1-0.1,0.2-0.3,0.1-0.4
					c0-0.1-0.1-0.1-0.2-0.2c-0.1,0-0.2-0.1-0.2-0.1c-0.1,0-0.2,0-0.3,0c-0.1,0-0.2,0-0.3,0c-0.3,0-0.6,0.1-0.9,0.2
					c-0.3,0.1-0.6,0.2-0.8,0.3c-0.3,0.1-0.4,0.3-0.6,0.4c-0.2,0.2-0.2,0.4-0.1,0.5c0,0,0,0,0,0c0.1,0.2,0.3,0.4,0.7,0.5
					c0.3,0.1,0.8,0.2,1.3,0.3c0.3,0,0.6,0,1,0c0.9,0,1.8-0.1,2.8-0.2c0.6-0.1,1.1-0.2,1.5-0.3c0,0.1,0.1,0.2,0.2,0.3
					c0.2,0.1,0.5,0.1,0.8,0.1c0.2,0,0.4,0,0.7,0c0.2,0,0.4,0,0.6-0.1c0.2,0,0.4-0.1,0.6-0.1c0.2-0.1,0.4-0.1,0.6-0.2
					c0.2,0,0.4-0.1,0.6-0.2c0.2-0.1,0.3-0.1,0.4-0.1c0.1,0,0.2-0.1,0.4-0.1c0.1,0,0.3-0.1,0.4-0.1c0.1,0,0.2,0,0.3-0.1
					c0.1,0,0.2,0,0.3,0c0.2,0,0.4,0,0.5,0c0.1,0,0.1,0,0.2,0c0.1,0,0.1,0,0.2,0.1c0.1,0,0.1,0,0.2,0.1c0.1,0,0.1,0.1,0.2,0.1
					c0.1,0,0.1,0.1,0.2,0.1c0.1,0.1,0.2,0.1,0.3,0.2c0.1,0,0.2,0.1,0.3,0.1c0.1,0.1,0.3,0.1,0.4,0.1c0.1,0,0.3,0.1,0.4,0.1
					c0.2,0,0.4,0.1,0.5,0.1c0.1,0,0.3,0,0.4,0c1,0,2.3-0.2,3.8-0.6c0.1,0,0.1,0,0.2-0.1C153.1,54.9,153.1,54.8,152.9,54.8z
					 M132.8,54.7c0,0,0.1-0.1,0.2-0.1c0.2-0.1,0.5-0.3,0.8-0.4c0.3-0.1,0.5-0.2,0.8-0.2c0,0,0.1,0,0.1,0c0.2,0,0.2,0.1,0.2,0.1
					c0,0,0,0-0.1,0.1c-0.1,0.1-0.3,0.2-0.5,0.2c-0.2,0.1-0.5,0.1-0.8,0.2C133.2,54.6,133,54.6,132.8,54.7z"/>
				<path d="M172.5,54.5c0.1,0,0.1,0,0.2,0c0,0,0.1,0,0.1,0c0.1,0,0.2-0.1,0.3-0.2c0.1,0,0.1-0.1,0.1-0.1c0.1,0,0.1-0.1,0.1-0.1
					c0,0,0-0.1-0.1-0.1c0,0-0.1-0.1-0.2-0.1c-0.1,0-0.1,0-0.2,0c-0.1,0-0.1,0-0.2,0.1c0,0,0,0-0.1,0.1c0,0-0.1,0.1-0.1,0.1
					c-0.1,0.1-0.2,0.1-0.2,0.2c0,0,0,0.1,0,0.1C172.4,54.4,172.4,54.5,172.5,54.5z"/>
				<path d="M199.3,54.8c0,0-0.1-0.1-0.2-0.1c-0.1,0-0.2,0-0.2,0c-0.1,0-0.1,0-0.2,0.1c-0.1,0-0.2,0.1-0.4,0.2
					c-0.2,0.1-0.4,0.2-0.6,0.2c-0.2,0.1-0.5,0.2-0.9,0.3c-0.4,0.1-0.7,0.2-0.9,0.3l-0.7,0.2c0.1-0.1,0.1-0.2,0.2-0.2l0.1-0.1
					c0.1-0.1,0.2-0.2,0.2-0.4c0.1-0.2,0.2-0.4,0.3-0.5c0.1-0.1,0.2-0.2,0.2-0.3c0-0.1,0-0.1-0.1-0.1c-0.1,0-0.2,0-0.3,0
					c-0.1,0-0.1,0-0.2,0c0,0-0.1,0-0.3,0.1c-0.4,0.2-0.8,0.3-1.2,0.5c-0.4,0.1-0.6,0.2-0.8,0.3c-0.2,0.1-0.4,0.1-0.5,0.2
					c-0.1,0-0.3,0.1-0.3,0.1c0,0-0.1,0-0.1,0c0,0,0,0,0,0c0,0,0-0.1,0.1-0.2c0.1-0.1,0.3-0.2,0.4-0.3c0.2-0.1,0.4-0.2,0.7-0.3
					c0.3-0.1,0.5-0.2,0.8-0.2c0.3-0.1,0.6-0.1,0.8,0c0.1,0,0.1,0,0.2,0c0.1,0,0.2,0,0.2,0c0.1-0.1,0.1-0.2,0.1-0.2
					c0-0.1-0.1-0.1-0.2-0.1c-0.4-0.1-0.9-0.1-1.4,0c-0.4,0.1-0.8,0.2-1.2,0.4c-0.3,0.1-0.6,0.3-0.8,0.4c0,0-0.1,0-0.1,0
					c-1.7,0.4-2.9,0.6-3.8,0.6c-0.1,0-0.3,0-0.4,0c-0.1,0-0.2-0.1-0.3-0.1c-0.1,0-0.2-0.1-0.3-0.1c-0.1,0-0.2-0.1-0.2-0.1
					c-0.1,0-0.1-0.1-0.2-0.1l-0.2-0.1c0,0-0.1-0.1-0.2-0.1c-0.1,0-0.2-0.1-0.2-0.1l-0.2-0.1c-0.1,0-0.2-0.1-0.3-0.1
					c-0.1,0-0.2,0-0.3,0c-0.1,0-0.2,0-0.4,0c-0.1,0-0.3,0-0.4,0c-0.2,0-0.4,0.1-0.7,0.1c-0.2,0.1-0.5,0.1-0.6,0.2
					c-0.2,0-0.4,0.1-0.7,0.2c-0.2,0.1-0.4,0.1-0.5,0.2c-0.1,0-0.3,0.1-0.5,0.1c-0.2,0.1-0.4,0.1-0.5,0.1c-0.2,0-0.3,0-0.5,0.1
					c-0.2,0-0.4,0-0.5,0c-0.3,0-0.4,0-0.4-0.1c0,0,0,0,0,0c0,0,0,0,0,0c0,0,0-0.1,0-0.1c0,0,0-0.1,0-0.1c0-0.1,0-0.2-0.1-0.2
					c-0.1,0-0.1,0-0.2,0c-0.1,0-0.1,0-0.1,0c-0.1,0-0.2,0-0.3,0c-0.4,0.1-0.9,0.2-1.6,0.4c-0.7,0.1-1.4,0.2-2,0.3
					c-0.7,0.1-1.3,0.1-1.8,0c-0.4-0.1-0.6-0.2-0.6-0.3c0-0.1,0-0.1,0-0.2c0-0.1-0.1-0.1-0.2-0.1c0,0,0,0,0,0c-0.1,0-0.3,0-0.4,0
					c0,0-0.1,0-0.1,0.1c-1.4,0.8-3,1.5-4.7,2c-0.9,0.3-1.9,0.6-2.9,0.8c-1,0.2-2.1,0.4-3.2,0.6c-0.9,0.1-1.7,0.2-2.5,0.1
					c-0.8,0-1.5-0.1-2.2-0.2c-0.7-0.1-1.2-0.3-1.6-0.5c-0.4-0.2-0.7-0.5-0.8-0.8c-0.1-0.3-0.1-0.7,0.1-1c0.2-0.4,0.5-0.8,0.9-1.3
					c0.4-0.4,1-0.9,1.7-1.3c0.7-0.5,1.4-0.9,2.1-1.3c0.8-0.4,1.6-0.8,2.4-1.1c0.8-0.3,1.7-0.6,2.5-0.8c1.6-0.4,3-0.5,4-0.4
					c1.4,0.2,2.3,0.8,2.7,1.9c0,0.1,0.1,0.1,0.2,0.1c0.1,0,0.1,0,0.2,0c0.1,0,0.1,0,0.1,0c0,0,0.1,0,0.1,0c0.1-0.1,0.1-0.1,0.1-0.2
					c-0.5-1.2-1.6-2-3.2-2.2c-0.6-0.1-1.4-0.1-2.1,0c-0.8,0.1-1.6,0.2-2.5,0.4c-0.7,0.2-1.4,0.4-2.2,0.7c-0.7,0.3-1.5,0.6-2.2,0.9
					c-0.7,0.3-1.4,0.7-2,1.1c-0.6,0.4-1.2,0.8-1.7,1.2c-0.5,0.4-0.9,0.8-1.3,1.2c-0.3,0.4-0.6,0.8-0.7,1.2c-0.1,0.4-0.1,0.8,0,1.1
					c0.2,0.4,0.5,0.7,1,0.9c0.5,0.3,1.1,0.5,1.8,0.6c0.8,0.2,1.7,0.2,2.7,0.2c0.8,0,1.6-0.1,2.5-0.2c1.1-0.1,2.2-0.3,3.3-0.6
					c1.1-0.2,2.1-0.5,3-0.8c1.5-0.5,3-1.1,4.4-1.9c0.2,0.2,0.5,0.3,1,0.4c0.3,0,0.6,0.1,1,0.1c0.8,0,1.7-0.1,2.7-0.2
					c0.7-0.1,1.3-0.2,1.8-0.4c0,0,0,0,0,0c0,0.1,0.1,0.2,0.3,0.3c0.2,0.1,0.5,0.1,0.8,0.1c0.2,0,0.4,0,0.7,0c0.2,0,0.4,0,0.6-0.1
					c0.2,0,0.4-0.1,0.6-0.1c0.2-0.1,0.4-0.1,0.6-0.2c0.2,0,0.4-0.1,0.6-0.2c0.2-0.1,0.3-0.1,0.4-0.1c0.1,0,0.2-0.1,0.4-0.1
					c0.1,0,0.3-0.1,0.4-0.1c0.1,0,0.2,0,0.3-0.1c0.1,0,0.2,0,0.3,0c0.2,0,0.4,0,0.5,0c0.1,0,0.1,0,0.2,0c0.1,0,0.1,0,0.2,0.1
					c0.1,0,0.1,0,0.2,0.1c0.1,0,0.1,0.1,0.2,0.1c0.1,0,0.1,0.1,0.2,0.1c0.1,0.1,0.2,0.1,0.3,0.2c0.1,0,0.2,0.1,0.3,0.1
					c0.1,0.1,0.3,0.1,0.4,0.1c0.1,0,0.3,0.1,0.4,0.1c0.2,0,0.4,0.1,0.5,0.1c0.1,0,0.3,0,0.4,0c0.8,0,1.8-0.2,3.1-0.4
					c0,0,0,0.1,0,0.1c0,0.2,0.1,0.4,0.5,0.4c0.3,0,0.7,0,1.2-0.2c0.4-0.1,0.9-0.3,1.6-0.5c-0.1,0.1-0.1,0.2-0.2,0.3l-0.1,0.1
					c-0.2,0.3-0.4,0.5-0.6,0.7c-1.1,0.3-1.9,0.6-2.3,0.7c-0.4,0.2-0.7,0.3-0.7,0.4c0,0.1,0,0.1,0,0.2c0,0.1,0.2,0.2,0.5,0.2
					c0.1,0,0.3,0,0.4,0c0.2,0,0.3,0,0.5,0c0.8-0.1,1.5-0.5,2.2-1.2c0.2-0.1,0.4-0.1,0.6-0.2l0.1,0c0.4-0.1,0.7-0.2,0.9-0.3
					c0.2-0.1,0.5-0.2,0.9-0.3c0.4-0.1,0.7-0.2,0.9-0.3c0.2-0.1,0.4-0.2,0.6-0.2c0.2-0.1,0.4-0.2,0.5-0.2c0,0,0.1-0.1,0.1-0.1
					C199.3,54.9,199.3,54.9,199.3,54.8z M193.3,57c-0.4,0.2-0.7,0.4-1,0.5c-0.1,0-0.2,0-0.3,0C192.1,57.4,192.5,57.2,193.3,57z"/>
			</g>
		</g>
	</g>
	<g>
		<path class="st0" d="M25.3,46.6c0,0,2,0.4,4.4,0.3l0.1-3.9c-0.1-0.1,0.7,0.6,1.8,0l-0.1,3.9c0,0,3.5,0.4,8.5-0.4
			c0,0,0.7-0.1,1.5-0.5s1.1-0.5,1.5-0.2c0.4,0.3,0.6,1.1,0.4,1.7c0,0-0.1,0.4,0.2,0.5c0.2,0.2,5.5,4.1,5.5,4.1l4.3,3.2l5,3.7
			l0.6,0.4l-45.2,4.5l-0.4-1L25.3,46.6z"/>
		<g>
			<path d="M25.6,24.4c0.7-0.1,1.3-0.1,2-0.2c0.1,0,0.2-0.1,0.3-0.2c-0.1,0-0.2-0.1-0.2-0.1c-0.7,0.1-1.5,0.2-2.2,0.2
				c-0.1,0-0.1,0.1-0.2,0.2c0,0,0,0.1,0.1,0.1C25.4,24.4,25.5,24.4,25.6,24.4z"/>
			<path d="M22.6,33c0.4,1.6,0.7,3.1,1.2,4.6c0.3,0.9,0.6,1.9,1,2.8c0.2,0.4,0.4,0.8,0.9,1c0.3,0.1,0.5,0.1,0.7-0.2
				c0.2-0.3,0.1-0.6-0.1-0.8c-0.7-0.9-1-1.9-1.3-2.9c-0.2-0.8-0.5-1.7-0.7-2.5c-0.3-1.3-0.6-2.6-0.9-4c-0.2-1-0.1-2-0.2-3
				c0-0.2-0.1-0.4-0.2-0.4c-0.1,0-0.4,0.1-0.4,0.2c-0.1,0.3-0.2,0.6-0.2,0.9c0,0.7,0,1.4,0.1,2.1c0,0,0,0-0.1,0
				C22.3,31.5,22.4,32.3,22.6,33z"/>
			<path d="M62.7,57.7c-3.3-2.5-6.7-5-10.1-7.5c-1.9-1.4-3.8-2.8-5.7-4.3c-0.1-0.1-0.2-0.2-0.2-0.3c0-0.3,0-0.6,0-0.9
				c-0.1-0.9-0.5-1.6-1.4-1.8c-0.2-0.1-0.3-0.1-0.4-0.2c-0.4-0.2-0.7-0.2-1.1,0c-0.3,0.1-0.6,0.3-0.9,0.5c-0.3,0.3-0.7,0.4-1,0.4
				c-1.9,0.3-3.7,0.5-5.6,0.5c-1.4,0-2.7,0-4.1,0c-0.1,0-0.2,0-0.3,0c0-0.1,0-0.2,0-0.3c0-0.9,0-1.8,0-2.7c0-1.6,0.6-1.9,0.6-1.9
				c0.4-0.4,1.5-1.1,2-1.6c0.2-0.2,0.4-0.6,0.5-0.9c0.1-0.4,0.1-0.8-0.1-1.2c-0.2-0.3-0.6-0.3-0.9-0.3c-0.1,0-0.2-0.1-0.2-0.1
				c-0.1-0.3-0.2-0.7-0.2-1.1c0-0.3,0-0.4,0.3-0.5c0.1,0,0.2-0.1,0.3-0.2c0.1-0.1,0.2-0.1,0.4-0.1c0.7,0.1,1.2-0.2,1.4-0.9
				c0.1-0.3,0.1-0.6,0.1-0.9c0-0.3-0.1-0.5-0.4-0.7c-0.1,0-0.1-0.2-0.1-0.3c0.2-0.9,0.1-1.7,0-2.5c-0.1-0.6-0.5-0.9-1.1-0.6
				c-0.1,0.1-0.3,0.1-0.3,0.2c-0.3,0.3-0.6,0.6-0.7,0.9c-0.3,0.5-0.4,1-0.6,1.4c0,0.1-0.1,0.2-0.2,0.2c-0.8,0.5-1.1,1.2-1.1,2.1
				c0,0.5,0.2,0.7,0.7,0.8c0.1,0,0.2,0.1,0.2,0.1c0,0.4,0.3,0.6,0.7,0.6c0,0.3,0,0.5,0,0.8c0,0.3,0.1,0.6,0.1,0.9
				c0,0.2,0,0.2-0.1,0.3c-0.8,0.6-1.5,1.2-2.3,1.9c0,0-1.1,1.1-1.1,2.7c0,1.1,0,2.2,0,3.2c0,0.1,0,0.2,0,0.3c-0.3,0-0.5,0-0.8-0.1
				c-0.4,0-0.9-0.1-1.3-0.1c-0.4,0-0.7,0-1.1-0.1c-0.1,0-0.2,0-0.3,0.1c-0.1,0.1-0.3,0.2-0.4,0.4c-0.4,0.4-0.4,1-0.6,1.5
				c-0.1,0.2-0.1,0.5-0.2,0.6c-0.5,0.6-1,1.2-1.4,1.7c-1.1,1.4-2.1,2.7-3.1,4.1c-1.6,2.2-3.4,4.4-4.7,6.8c-0.7,1.2-1.6,2.3-2.4,3.4
				c-0.4,0.6-0.2,1.3,0.2,1.7c0.1,0.1,0.3,0.2,0.5,0.2c0.6,0,1.1-0.1,1.7-0.2c0.8-0.1,1.6-0.2,2.3-0.2c0.6-0.1,1.1-0.1,1.7-0.2
				c0.8-0.1,1.6-0.2,2.3-0.2c0.8-0.1,1.6-0.1,2.4-0.2c0.8-0.1,1.6-0.2,2.4-0.2c0.7-0.1,1.5-0.1,2.2-0.2c1-0.1,1.9-0.2,2.9-0.3
				c0.9-0.1,1.9-0.2,2.8-0.3c0.9-0.1,1.9-0.2,2.8-0.3c1-0.1,1.9-0.2,2.9-0.3c0.9-0.1,1.8-0.2,2.7-0.3c1-0.1,1.9-0.2,2.9-0.3
				c0.9-0.1,1.8-0.2,2.8-0.3c0.9-0.1,1.9-0.2,2.8-0.3c1-0.1,1.9-0.2,2.9-0.3c0.9-0.1,1.8-0.2,2.7-0.3c1-0.1,2-0.2,2.9-0.3
				c0.9-0.1,1.8-0.2,2.7-0.3c0.2,0,0.4-0.2,0.4-0.3C63.5,58.6,63.4,58.2,62.7,57.7z M31.3,38.2c0.6-0.5,1.2-1,1.8-1.5
				c0.2-0.2,0.5-0.4,0.8-0.3c0.1,0,0.3,0.2,0.3,0.3c0.1,0.1,0,0.2-0.1,0.4c-0.6,0.6-1.8,1.4-2.4,2c-0.7,0.6-0.6,2.1-0.6,2.1
				c0,0.6,0,1.2,0,1.8c0,1.5,0,3,0,4.5c0,1.4,0,2.7,0,4.1c0,0.4-0.1,0.5-0.5,0.5c-0.1,0-0.1,0-0.2,0c-0.4-0.1-0.4-0.1-0.4-0.4
				c0-0.6,0-1.3,0-1.9c0,0,0,0,0,0c0-1.9,0-3.9,0-5.8c0-1,0-2,0-3C30.1,40.8,30,39.3,31.3,38.2z M14.3,63.3c0.2-0.3,0.4-0.5,0.5-0.7
				c2.9-4,5.7-8,8.6-12c0.6-0.8,1.1-1.6,1.7-2.4c0.1-0.1,0.1-0.2,0.2-0.2c0.4-0.3,0.5-0.7,0.5-1.1c0-0.5,0.1-1,0.2-1.4
				c0,0,0.1-0.1,0.2-0.1c0.6,0,1.2,0.1,1.9,0.2c0.4,0,0.8,0.1,1.2,0.1c0,0.4,0,0.8,0,1.2c0,1.8,0,3.6,0,5.4c0,0.1,0,0.3,0,0.4
				c0,0.2,0,0.4,0.2,0.5c0.4,0.2,1.3,0.3,1.8-0.2c0.3-0.2,0.6-0.5,0.6-0.9c0-0.2-0.1-0.3-0.1-0.5c0-1.2,0-2.4,0-3.6c0-0.7,0-1.3,0-2
				c0-0.3,0.1-0.3,0.3-0.3c1.5,0,3.1,0.1,4.6,0c1.8-0.1,3.7-0.2,5.5-0.6c0.4-0.1,0.7-0.3,1-0.5c0.7-0.4,1.4-0.3,1.7,0.3
				c0.2,0.4,0.3,0.8,0.2,1.2c-0.1,0.4-0.1,0.5,0.3,0.7c5.2,3.9,10.5,7.8,15.7,11.7c0.1,0,0.1,0.1,0.2,0.2
				C45.7,60.1,30.1,61.7,14.3,63.3z"/>
			<path d="M26.7,28.8c0.2,0,0.3,0,0.5,0c0.8,0,1.3-0.3,1.8-0.9c0.3-0.4,0.5-0.9,0.2-1.4c-0.3-0.5-0.8-1-1.4-1.1
				c-0.9-0.2-1.7,0-2.4,0.5c-0.5,0.3-0.8,0.7-0.8,1.3c0,0.8,0.3,1.3,1,1.4C25.9,28.8,26.3,28.8,26.7,28.8
				C26.7,28.9,26.7,28.9,26.7,28.8z M27.7,26.5c0.3,0.2,0.7,0.4,0.7,0.8c0,0.1-0.1,0.3-0.2,0.3c-0.2,0.1-0.5,0.2-0.7,0.3
				C27.5,27.4,27.6,27,27.7,26.5z"/>
			<path d="M48.8,33.4c-0.2-0.1-0.4,0-0.5,0.1c-0.2,0.3-0.4,0.7-0.5,1.2C47.9,34.8,48,35,48,35c0.1,0,0.3,0,0.4-0.1
				c0.1,0,0.1-0.1,0.1-0.1c0.1-0.3,0.3-0.7,0.4-1C49.1,33.6,49,33.5,48.8,33.4z"/>
			<path d="M46.6,37.7c0-0.1-0.1-0.2-0.2-0.2c-0.1,0-0.2,0.1-0.3,0.1C46,37.8,46,38,45.9,38.2c-0.2,0.6-0.3,1.2-0.5,1.8
				c0,0.2-0.1,0.3-0.1,0.5c0,0.2-0.1,0.4,0.1,0.5c0.2,0.1,0.4-0.1,0.5-0.3c0.1-0.1,0.1-0.2,0.2-0.4c0.1-0.2,0.1-0.4,0.2-0.5
				c0.1-0.5,0.3-1.1,0.4-1.6c0,0-0.1,0-0.1,0C46.6,38,46.6,37.8,46.6,37.7z"/>
			<path d="M42.2,23.9c0.1,0,0.2-0.1,0.2-0.2c-0.1,0-0.1-0.1-0.2-0.1c-0.7,0-1.4,0-2.1-0.1c-0.1,0-0.2,0-0.2,0.2
				c0,0.1,0.1,0.1,0.2,0.1c0.3,0,0.7,0,1,0c0,0,0,0,0,0C41.5,23.9,41.8,23.9,42.2,23.9z"/>
			<path d="M39.1,26.9c-0.1,0.6,0,0.8,0.5,1.1c0.5,0.2,0.9,0.3,1.4,0.3c1.2,0,2.1-1.1,2.2-2.1c0-0.5-0.1-0.8-0.6-1
				c-0.4-0.1-0.8-0.2-1.1-0.3c0,0,0,0,0,0.1c-0.1,0-0.2,0-0.2,0C40.1,25,39.3,25.8,39.1,26.9z M41.9,26.1c0.1,0,0.1,0,0.2,0.1
				c0.5,0.2,0.6,0.5,0.2,0.9c-0.1,0.1-0.3,0.2-0.4,0.3C41.8,26.9,41.9,26.5,41.9,26.1z"/>
		</g>
	</g>
	<path d="M29.8,39c0.3,0.2,0.6,0.4,0.9,0.5c0.3,0.1,0.6,0.2,0.8,0.3c0-0.1,0-0.1,0-0.2c0,0,0,0,0,0c-0.2,0.2,0.3,0.2,0.4,0.1
		c0,0,0,0,0,0c0.1-0.1,0.1-0.1,0-0.2c-0.2-0.1-0.5-0.2-0.7-0.3c-0.3-0.1-0.7-0.3-1-0.5C30.2,38.7,29.6,38.9,29.8,39L29.8,39z"/>
	<path d="M30.5,38.5c0.2,0.1,0.4,0.3,0.7,0.4c0.2,0.1,0.4,0.2,0.6,0.3c0.1,0,0.3,0,0.4-0.1c0.1,0,0.2-0.1,0.1-0.2
		c-0.3-0.1-0.5-0.2-0.7-0.3c-0.2-0.1-0.4-0.3-0.6-0.4C30.8,38.2,30.3,38.4,30.5,38.5L30.5,38.5z"/>
	<path d="M29.7,40c0.5,0.2,1.1,0.3,1.7,0.4c0.1,0,0.3,0,0.4-0.1c0.1-0.1,0.1-0.2-0.1-0.2c-0.6-0.1-1.1-0.2-1.7-0.4
		C29.9,39.6,29.4,39.9,29.7,40L29.7,40z"/>
	<g>
		<path d="M22.6,19.1c-0.7,0.9-1.3,1.9-1.5,3.1c0,0.2-0.1,0.4-0.1,0.6c0,0.1,0.1,0.3,0.2,0.3c0.5,0,1.1,0.1,1.6,0
			c1.9-0.3,3.9-0.5,5.8-0.5c1,0,1.4-0.6,1.4-1.4c0-0.1,0-0.3,0.1-0.4c0.1-0.2,0.2-0.3,0.5-0.3c-4.6,0-7.8-1.5-7.8-1.5
			C22.7,19,22.6,19,22.6,19.1z"/>
		<path d="M50.5,32c-0.5-0.7-1.2-1.1-2-1.2c-0.5-0.1-0.4,0-0.4-0.5c0-0.1,0-0.2,0-0.3c0.1-0.5,0.1-1.1,0.2-1.6
			c0.1-1.6,0-3.3-0.5-4.8c-0.1-0.5-0.4-1-0.1-1.5c0,0,0-0.1,0-0.1c0-0.6,0-1.2-0.1-1.8c0-0.8-0.3-1.4-0.8-2c-0.1-0.1-0.1-0.2,0-0.3
			c-1.8,2.2-13.5,2.5-13.5,2.5c0.4,0,0.6,0.1,0.6,0.5c0,0.4,0.1,0.8,0.1,1.2c0,0.5,0.1,0.6,0.7,0.6c0.6-0.1,1.2-0.1,1.7-0.1
			c1.3,0,2.6,0,3.9,0c0.4,0,0.8-0.1,1.1-0.1c0.7-0.1,1.4-0.1,2.1-0.2c0.7,0,1.3,0,2,0.1c0.2,0,0.5,0.2,0.6,0.4
			c0.2,0.2,0.2,0.4,0.3,0.7c0.5,1.3,0.8,2.7,0.9,4.1c0.1,1.4-0.1,2.8-0.2,4.1c0,0.4,0.1,0.5,0.5,0.5c0.3,0,0.6,0,0.8,0.1
			c1.1,0.4,1.6,1.2,1.7,2.4c0,0.5-0.2,0.7-0.6,0.9c-0.4,0.1-0.6,0.4-0.7,0.9c-0.1,0.4,0.1,0.6,0.5,0.5c0.5-0.1,0.8-0.4,1.2-0.8
			C51.3,34.8,51.1,32.9,50.5,32z"/>
		<path class="st0" d="M46.8,17.8c0.7-1.1,0.9-2.3,0.9-3.5c0-0.9-0.2-1.8-0.4-2.7c-0.4-1.9-1.5-3.4-3.2-4.4c-1.8-1-3.7-1.3-5.7-1.5
			c-0.5,0-1-0.1-1.5-0.1c-0.1,0-0.2-0.1-0.3-0.2c-0.1-0.1-0.2-0.3-0.3-0.4C36,4.5,35.6,4.2,35.1,4c-0.1,0-0.1,0-0.2,0
			c-0.2,0.2-0.5,0.5-0.7,0.7C34.1,4.8,34,4.9,34,5.1c-0.1,0.2-0.2,0.3-0.5,0.4c-1.1,0.2-2.2,0.4-3.3,0.6c-1.5,0.3-2.9,1-4.1,2.1
			c-1.2,1.1-2,2.5-2.7,3.9c-0.4,0.8-0.6,1.6-0.9,2.5c-0.3,1-0.2,2.1-0.3,3.1c0,0.5,0.1,0.9,0.5,1.2c0,0,3.2,1.5,7.8,1.5
			c0.9,0,1.9,0,2.8,0C33.3,20.4,45,20.1,46.8,17.8z M36.3,16.5c0.1-0.1,0.3-0.2,0.4-0.2c1.9,0.1,3.8,0.1,5.7,0.4
			c0.1,0,0.1,0,0.2,0.1c-0.1,0-0.2,0.1-0.4,0.1c-2.2,0.4-4.5,0.7-6.7,1.1c-0.2,0-0.3,0-0.5,0c0,0,0-0.1,0-0.1
			C35.5,17.5,35.9,17,36.3,16.5z M30.3,16.4c1.8,0,3.6-0.1,5.5-0.1c-0.1,0.2-0.1,0.3-0.1,0.4c-0.3,0.4-0.5,0.7-0.8,1.1
			c0,0.1-0.1,0.1-0.2,0.1c-0.1,0-0.2,0-0.3,0c-0.4,0.1-0.8,0-1.2-0.2c-0.9-0.3-1.8-0.7-2.7-1c-0.1,0-0.2-0.1-0.2-0.2
			C30.3,16.5,30.3,16.5,30.3,16.4z M34.8,18.3c-0.3,0-0.5,0-0.7,0C34.3,18.2,34.5,18.1,34.8,18.3z M28.3,13.4c0-0.2,0.2-0.3,0.4-0.3
			c0.2,0,0.3,0.2,0.3,0.5c-0.1,0.3-0.2,0.5-0.3,0.8c-0.1,0.1-0.2,0.2-0.4,0.2c-0.1,0-0.2-0.2-0.2-0.3C28.2,14,28.3,13.7,28.3,13.4z
			 M26.7,11.2c0.1-0.1,0.3-0.2,0.4-0.1c0.2,0,0.2,0.2,0.2,0.4c0,0.4-0.2,0.8-0.4,1.1c-0.1,0.1-0.3,0.2-0.4,0.1
			c-0.1,0-0.1-0.2-0.2-0.3C26.3,11.8,26.4,11.5,26.7,11.2z M25.1,14.6c0.1-0.1,0.2-0.2,0.3-0.2c0.2,0,0.3,0.1,0.3,0.3
			c0.1,0.4,0,0.7-0.2,1.1c-0.1,0.1-0.3,0.2-0.4,0.2c-0.2,0-0.2-0.2-0.2-0.4c0-0.1,0-0.2,0-0.3c0,0,0,0,0,0C25,15,25,14.8,25.1,14.6z
			 M24.9,18.7c-0.2,0-0.3-0.1-0.4-0.2c-0.1-0.2-0.1-0.4,0.1-0.5c0.2-0.2,0.4-0.4,0.7-0.5c0.9-0.4,1.9-0.5,2.8-0.7
			c0.7-0.1,1.4,0,2,0.2c1.1,0.4,2.2,0.8,3.3,1.2c0.1,0,0.1,0,0.2,0.1c0,0,0,0,0,0.1c-0.4,0-0.9,0-1.3,0.1c-2.3,0.1-4.7,0.2-7,0.3
			C25.1,18.7,25,18.7,24.9,18.7z M34.2,19.8c-1.5,0.4-7.7-0.1-8.7-0.7c0.1-0.1,0.2-0.1,0.3-0.1c1-0.1,2-0.1,3.1-0.2
			c1.4-0.1,2.8-0.2,4.2-0.2c0.4,0,0.8,0.1,1.3,0.1C34.3,19.1,34.2,19.5,34.2,19.8z M38.7,19.5c-1.2,0.1-2.5,0.2-3.7,0.3
			c-0.4,0-0.5-0.1-0.5-0.5c0-0.1,0-0.1,0-0.2c0.1-0.4,0.1-0.5,0.5-0.4c1.3,0.2,2.5,0.4,3.8,0.6c0,0,0.1,0,0.1,0c0,0,0,0,0,0.1
			C38.8,19.5,38.7,19.5,38.7,19.5z M44.9,18.3c-0.3,0.2-0.7,0.4-1,0.4c-1.1,0.2-2.1,0.4-3.2,0.5c-0.5,0-1-0.1-1.6-0.2
			c-1.1-0.2-2.2-0.4-3.3-0.5c-0.1,0-0.2,0-0.2-0.1c0,0,0,0,0,0c0.4-0.1,0.7-0.1,1.1-0.2c2.2-0.4,4.5-0.7,6.7-1.1
			c0.6-0.1,1.1,0.1,1.6,0.4C45.2,17.8,45.2,18.1,44.9,18.3z"/>
	</g>
	<g>
		<path d="M22.6,19.1c-0.7,0.9-1.3,1.9-1.5,3.1c0,0.2-0.1,0.4-0.1,0.6c0,0.1,0.1,0.3,0.2,0.3c0.5,0,1.1,0.1,1.6,0
			c1.9-0.3,3.9-0.5,5.8-0.5c1,0,1.4-0.6,1.4-1.4c0-0.1,0-0.3,0.1-0.4c0.1-0.2,0.2-0.3,0.5-0.3c-4.6,0-7.8-1.5-7.8-1.5
			C22.7,19,22.6,19,22.6,19.1z"/>
		<path d="M50.5,32c-0.5-0.7-1.2-1.1-2-1.2c-0.5-0.1-0.4,0-0.4-0.5c0-0.1,0-0.2,0-0.3c0.1-0.5,0.1-1.1,0.2-1.6
			c0.1-1.6,0-3.3-0.5-4.8c-0.1-0.5-0.4-1-0.1-1.5c0,0,0-0.1,0-0.1c0-0.6,0-1.2-0.1-1.8c0-0.8-0.3-1.4-0.8-2c-0.1-0.1-0.1-0.2,0-0.3
			c-1.8,2.2-13.5,2.5-13.5,2.5c0.4,0,0.6,0.1,0.6,0.5c0,0.4,0.1,0.8,0.1,1.2c0,0.5,0.1,0.6,0.7,0.6c0.6-0.1,1.2-0.1,1.7-0.1
			c1.3,0,2.6,0,3.9,0c0.4,0,0.8-0.1,1.1-0.1c0.7-0.1,1.4-0.1,2.1-0.2c0.7,0,1.3,0,2,0.1c0.2,0,0.5,0.2,0.6,0.4
			c0.2,0.2,0.2,0.4,0.3,0.7c0.5,1.3,0.8,2.7,0.9,4.1c0.1,1.4-0.1,2.8-0.2,4.1c0,0.4,0.1,0.5,0.5,0.5c0.3,0,0.6,0,0.8,0.1
			c1.1,0.4,1.6,1.2,1.7,2.4c0,0.5-0.2,0.7-0.6,0.9c-0.4,0.1-0.6,0.4-0.7,0.9c-0.1,0.4,0.1,0.6,0.5,0.5c0.5-0.1,0.8-0.4,1.2-0.8
			C51.3,34.8,51.1,32.9,50.5,32z"/>
		<path class="st0" d="M46.8,17.8c0.7-1.1,0.9-2.3,0.9-3.5c0-0.9-0.2-1.8-0.4-2.7c-0.4-1.9-1.5-3.4-3.2-4.4c-1.8-1-3.7-1.3-5.7-1.5
			c-0.5,0-1-0.1-1.5-0.1c-0.1,0-0.2-0.1-0.3-0.2c-0.1-0.1-0.2-0.3-0.3-0.4C36,4.5,35.6,4.2,35.1,4c-0.1,0-0.1,0-0.2,0
			c-0.2,0.2-0.5,0.5-0.7,0.7C34.1,4.8,34,4.9,34,5.1c-0.1,0.2-0.2,0.3-0.5,0.4c-1.1,0.2-2.2,0.4-3.3,0.6c-1.5,0.3-2.9,1-4.1,2.1
			c-1.2,1.1-2,2.5-2.7,3.9c-0.4,0.8-0.6,1.6-0.9,2.5c-0.3,1-0.2,2.1-0.3,3.1c0,0.5,0.1,0.9,0.5,1.2c0,0,3.2,1.5,7.8,1.5
			c0.9,0,1.9,0,2.8,0C33.3,20.4,45,20.1,46.8,17.8z M36.3,16.5c0.1-0.1,0.3-0.2,0.4-0.2c1.9,0.1,3.8,0.1,5.7,0.4
			c0.1,0,0.1,0,0.2,0.1c-0.1,0-0.2,0.1-0.4,0.1c-2.2,0.4-4.5,0.7-6.7,1.1c-0.2,0-0.3,0-0.5,0c0,0,0-0.1,0-0.1
			C35.5,17.5,35.9,17,36.3,16.5z M30.3,16.4c1.8,0,3.6-0.1,5.5-0.1c-0.1,0.2-0.1,0.3-0.1,0.4c-0.3,0.4-0.5,0.7-0.8,1.1
			c0,0.1-0.1,0.1-0.2,0.1c-0.1,0-0.2,0-0.3,0c-0.4,0.1-0.8,0-1.2-0.2c-0.9-0.3-1.8-0.7-2.7-1c-0.1,0-0.2-0.1-0.2-0.2
			C30.3,16.5,30.3,16.5,30.3,16.4z M34.8,18.3c-0.3,0-0.5,0-0.7,0C34.3,18.2,34.5,18.1,34.8,18.3z M28.3,13.4c0-0.2,0.2-0.3,0.4-0.3
			c0.2,0,0.3,0.2,0.3,0.5c-0.1,0.3-0.2,0.5-0.3,0.8c-0.1,0.1-0.2,0.2-0.4,0.2c-0.1,0-0.2-0.2-0.2-0.3C28.2,14,28.3,13.7,28.3,13.4z
			 M26.7,11.2c0.1-0.1,0.3-0.2,0.4-0.1c0.2,0,0.2,0.2,0.2,0.4c0,0.4-0.2,0.8-0.4,1.1c-0.1,0.1-0.3,0.2-0.4,0.1
			c-0.1,0-0.1-0.2-0.2-0.3C26.3,11.8,26.4,11.5,26.7,11.2z M25.1,14.6c0.1-0.1,0.2-0.2,0.3-0.2c0.2,0,0.3,0.1,0.3,0.3
			c0.1,0.4,0,0.7-0.2,1.1c-0.1,0.1-0.3,0.2-0.4,0.2c-0.2,0-0.2-0.2-0.2-0.4c0-0.1,0-0.2,0-0.3c0,0,0,0,0,0C25,15,25,14.8,25.1,14.6z
			 M24.9,18.7c-0.2,0-0.3-0.1-0.4-0.2c-0.1-0.2-0.1-0.4,0.1-0.5c0.2-0.2,0.4-0.4,0.7-0.5c0.9-0.4,1.9-0.5,2.8-0.7
			c0.7-0.1,1.4,0,2,0.2c1.1,0.4,2.2,0.8,3.3,1.2c0.1,0,0.1,0,0.2,0.1c0,0,0,0,0,0.1c-0.4,0-0.9,0-1.3,0.1c-2.3,0.1-4.7,0.2-7,0.3
			C25.1,18.7,25,18.7,24.9,18.7z M34.2,19.8c-1.5,0.4-7.7-0.1-8.7-0.7c0.1-0.1,0.2-0.1,0.3-0.1c1-0.1,2-0.1,3.1-0.2
			c1.4-0.1,2.8-0.2,4.2-0.2c0.4,0,0.8,0.1,1.3,0.1C34.3,19.1,34.2,19.5,34.2,19.8z M38.7,19.5c-1.2,0.1-2.5,0.2-3.7,0.3
			c-0.4,0-0.5-0.1-0.5-0.5c0-0.1,0-0.1,0-0.2c0.1-0.4,0.1-0.5,0.5-0.4c1.3,0.2,2.5,0.4,3.8,0.6c0,0,0.1,0,0.1,0c0,0,0,0,0,0.1
			C38.8,19.5,38.7,19.5,38.7,19.5z M44.9,18.3c-0.3,0.2-0.7,0.4-1,0.4c-1.1,0.2-2.1,0.4-3.2,0.5c-0.5,0-1-0.1-1.6-0.2
			c-1.1-0.2-2.2-0.4-3.3-0.5c-0.1,0-0.2,0-0.2-0.1c0,0,0,0,0,0c0.4-0.1,0.7-0.1,1.1-0.2c2.2-0.4,4.5-0.7,6.7-1.1
			c0.6-0.1,1.1,0.1,1.6,0.4C45.2,17.8,45.2,18.1,44.9,18.3z"/>
	</g>
	<path d="M46.8,17.8c0.7-1.1,0.9-2.3,0.9-3.5c0-0.9-0.2-1.8-0.4-2.7c-0.4-1.9-1.5-3.4-3.2-4.4c-1.8-1-3.7-1.3-5.7-1.5
		c-0.5,0-1-0.1-1.5-0.1c-0.1,0-0.2-0.1-0.3-0.2c-0.1-0.1-0.2-0.3-0.3-0.4C36,4.5,35.6,4.2,35.1,4c-0.1,0-0.1,0-0.2,0
		c-0.2,0.2-0.5,0.5-0.7,0.7C34.1,4.8,34,4.9,34,5.1c-0.1,0.2-0.2,0.3-0.5,0.4c-1.1,0.2-2.2,0.4-3.3,0.6c-1.5,0.3-2.9,1-4.1,2.1
		c-1.2,1.1-2,2.5-2.7,3.9c-0.4,0.8-0.6,1.6-0.9,2.5c-0.3,1-0.2,2.1-0.3,3.1c0,0.5,0.1,0.9,0.5,1.2c0,0,3.2,1.5,7.8,1.5
		c0.9,0,1.9,0,2.8,0C33.3,20.4,45,20.1,46.8,17.8z M36.3,16.5c0.1-0.1,0.3-0.2,0.4-0.2c1.9,0.1,3.8,0.1,5.7,0.4c0.1,0,0.1,0,0.2,0.1
		c-0.1,0-0.2,0.1-0.4,0.1c-2.2,0.4-4.5,0.7-6.7,1.1c-0.2,0-0.3,0-0.5,0c0,0,0-0.1,0-0.1C35.5,17.5,35.9,17,36.3,16.5z M30.3,16.4
		c1.8,0,3.6-0.1,5.5-0.1c-0.1,0.2-0.1,0.3-0.1,0.4c-0.3,0.4-0.5,0.7-0.8,1.1c0,0.1-0.1,0.1-0.2,0.1c-0.1,0-0.2,0-0.3,0
		c-0.4,0.1-0.8,0-1.2-0.2c-0.9-0.3-1.8-0.7-2.7-1c-0.1,0-0.2-0.1-0.2-0.2C30.3,16.5,30.3,16.5,30.3,16.4z M34.8,18.3
		c-0.3,0-0.5,0-0.7,0C34.3,18.2,34.5,18.1,34.8,18.3z M28.3,13.4c0-0.2,0.2-0.3,0.4-0.3c0.3,0.1,0.4,0.4,0.3,0.6
		c-0.1,0.3-0.2,0.8-0.6,0.8c-0.1,0-0.2-0.2-0.2-0.3C28.2,14,28.3,13.7,28.3,13.4z M26.7,11.2c0.1-0.1,0.3-0.2,0.4-0.1
		c0.2,0,0.2,0.2,0.2,0.4c0,0.4-0.2,0.8-0.4,1.1c-0.2,0.3-0.6,0.1-0.6-0.2C26.2,11.9,26.5,11.4,26.7,11.2z M25.1,14.6
		c0.1-0.1,0.2-0.2,0.3-0.2c0.2,0,0.3,0.1,0.3,0.3c0.1,0.4,0,0.7-0.2,1.1c-0.1,0.1-0.3,0.2-0.4,0.2C24.7,15.9,25,14.8,25.1,14.6z
		 M24.9,18.7c-0.2,0-0.3-0.1-0.4-0.2c-0.1-0.2-0.1-0.4,0.1-0.5c0.2-0.2,0.4-0.4,0.7-0.5c0.9-0.4,1.9-0.5,2.8-0.7
		c0.7-0.1,1.4,0,2,0.2c1.1,0.4,2.2,0.8,3.3,1.2c0.1,0,0.1,0,0.2,0.1c0,0,0,0,0,0.1c-0.4,0-0.9,0-1.3,0.1c-2.3,0.1-4.7,0.2-7,0.3
		C25.1,18.7,25,18.7,24.9,18.7z M34.2,19.8c-1.5,0.4-7.7-0.1-8.7-0.7c0.1-0.1,0.2-0.1,0.3-0.1c1-0.1,2-0.1,3.1-0.2
		c1.4-0.1,2.8-0.2,4.2-0.2c0.4,0,0.8,0.1,1.3,0.1C34.3,19.1,34.2,19.5,34.2,19.8z M38.7,19.5c-1.2,0.1-2.5,0.2-3.7,0.3
		c-0.4,0-0.5-0.1-0.5-0.5c0-0.1,0-0.1,0-0.2c0.1-0.4,0.1-0.5,0.5-0.4c1.3,0.2,2.5,0.4,3.8,0.6c0,0,0.1,0,0.1,0c0,0,0,0,0,0.1
		C38.8,19.5,38.7,19.5,38.7,19.5z M44.9,18.3c-0.3,0.2-0.7,0.4-1,0.4c-1.1,0.2-2.1,0.4-3.2,0.5c-0.5,0-1-0.1-1.6-0.2
		c-1.1-0.2-2.2-0.4-3.3-0.5c-0.1,0-0.2,0-0.2-0.1c0,0,0,0,0,0c0.4-0.1,0.7-0.1,1.1-0.2c2.2-0.4,4.5-0.7,6.7-1.1
		c0.6-0.1,1.1,0.1,1.6,0.4C45.2,17.8,45.2,18.1,44.9,18.3z"/>
	<path d="M31.9,28.5c-0.3,2.3-1.8,4.2-3.9,5c-2.2,0.8-4.7,0.1-6.2-1.6c-1.6-1.8-1.7-4.6-0.5-6.6c1.1-1.9,3.3-3.1,5.5-2.9
		c2.7,0.2,4.9,2.4,5.2,5.1c0,0.3,0.6,0.6,0.5,0.2c-0.3-2.5-1.9-4.7-4.3-5.6c-2.4-0.9-5.2-0.1-6.8,1.9c-1.7,2-1.9,4.9-0.6,7.2
		c1.2,2.2,3.6,3.6,6.1,3.4c3-0.3,5.2-2.7,5.6-5.6C32.4,28.6,31.9,28.1,31.9,28.5L31.9,28.5z"/>
	<path d="M35.7,27.4c0.2-2.3,1.7-4.2,3.9-4.9c2.2-0.8,4.8-0.2,6.3,1.5c1.6,1.7,1.9,4.3,0.8,6.4c-1.1,2-3.3,3.2-5.5,3.1
		c-2.7-0.1-5-2.1-5.5-4.8c0-0.3-0.6-0.6-0.5-0.2c0.4,2.5,2.1,4.6,4.5,5.3c2.5,0.8,5.3-0.1,6.9-2.2c1.5-2,1.6-4.8,0.4-7
		c-1.3-2.2-3.7-3.5-6.2-3.2c-3,0.3-5.3,2.7-5.6,5.6C35.1,27.3,35.6,27.8,35.7,27.4L35.7,27.4z"/>
	<path d="M31.9,28.3c0.7-1.2,3.1-1.1,3.8,0c0.2,0.3,0.9,0,0.7-0.3c-1.1-1.7-4.1-1.5-5.1,0.1C31,28.6,31.7,28.7,31.9,28.3L31.9,28.3z
		"/>
	<path d="M30.3,38.7c-0.2-0.1-0.3-0.3-0.3-0.5c0.1-0.2,0.3-0.3,0.5-0.3c0.2,0.1,0.3,0.3,0.3,0.5C30.8,38.6,30.5,38.8,30.3,38.7z"/>
	<path d="M29.9,39.4c-0.2-0.1-0.3-0.3-0.3-0.5c0.1-0.2,0.3-0.3,0.5-0.3c0.2,0.1,0.3,0.3,0.3,0.5C30.3,39.3,30.1,39.4,29.9,39.4z"/>
	<path d="M30.1,39.9c-0.1,0.2-0.3,0.3-0.5,0.2c-0.2-0.1-0.3-0.3-0.2-0.5c0.1-0.2,0.3-0.3,0.5-0.2C30.1,39.4,30.2,39.6,30.1,39.9z"/>
	<path d="M31.7,40.6c-0.2-0.1-0.3-0.2-0.2-0.4c0.1-0.2,0.2-0.3,0.4-0.2c0.2,0.1,0.3,0.2,0.2,0.4C32,40.6,31.8,40.7,31.7,40.6z"/>
	<path d="M31.9,40.1c-0.2-0.1-0.3-0.2-0.2-0.4s0.2-0.3,0.4-0.2c0.2,0.1,0.3,0.2,0.2,0.4C32.2,40,32,40.1,31.9,40.1z"/>
	<path d="M32.1,39.6c-0.2-0.1-0.3-0.2-0.2-0.4c0.1-0.2,0.2-0.3,0.4-0.2c0.2,0.1,0.3,0.2,0.2,0.4C32.5,39.6,32.3,39.7,32.1,39.6z"/>
</g>
</svg>
