<?xml version="1.0" encoding="utf-8"?>
<!-- Generator: Adobe Illustrator 23.0.3, SVG Export Plug-In . SVG Version: 6.00 Build 0)  -->
<svg version="1.1" id="圖層_1" xmlns="http://www.w3.org/2000/svg" xmlns:xlink="http://www.w3.org/1999/xlink" x="0px" y="0px"
	 viewBox="0 0 80 80" style="enable-background:new 0 0 80 80;" xml:space="preserve">
<style type="text/css">
	.st0{fill:#FFFFFF;}
	.st1{fill:#F3C74E;}
</style>
<g id="圖層_3">
	<path class="st0" d="M54.8,32.9c-7.7-7.8-24.7-7.7-29-1.4c-0.6,0.9-0.7,1.6-2.5,4.8c-2.4,4.2-3.6,1.2-3.6,6.7
		c0,2.7,1.7,4.2,3.3,7.1c3.9,7.3,3.2,13.8,5,15.8c5.6,6.4,18.7,1.8,25.4-1.3c1.6-0.7,1-3.8,3.1-8.3c1.2-2.5,4.3,0.7,5.1-4.4
		c0.7-4.1-6.2-5.9-4.9-5.3c1.3,0.6,1.8-4.5,1.5-7.5C57.9,35.1,56.1,34.2,54.8,32.9z"/>
</g>
<g>
	<g>
		<path class="st0" d="M28,65.9l-17.1,27c0,0,65.1,5.9,67.2-7c0-3.6-22.9-12.3-21.6-18.2c-2.2-5.9-6.2-1.6-12.3-1.5
			C36.1,66.3,28,65.9,28,65.9z"/>
	</g>
	<g>
		<path class="st1" d="M55,29.1c0,1.9-7,3.5-15.7,3.5S23.6,31,23.6,29.1s7-3.5,15.7-3.5S55,27.2,55,29.1z"/>
		<path class="st1" d="M26.7,69c0,0,2.8,0.5,6.1,0.4l0.1-5.5c-0.1-0.2,1,0.8,2.6,0l-0.1,5.4c0,0,4.9,0.5,11.8-0.6c0,0,1-0.1,2.1-0.7
			s1.5-0.7,2.1-0.3c0.6,0.4,0.9,1.5,0.6,2.3c0,0-0.1,0.5,0.2,0.7s7.6,5.6,7.6,5.6l6,4.5l7,5.1l0.8,0.6l-62.7,6.4l-0.5-1.3L26.7,69z"
			/>
		<path d="M27.2,38.1c0.9-0.1,1.9-0.2,2.8-0.3c0.1,0,0.2-0.2,0.4-0.2c-0.1,0-0.2-0.1-0.3-0.1c-1,0.1-2.1,0.2-3.1,0.3
			c-0.1,0-0.2,0.2-0.3,0.3c0,0,0,0.1,0.1,0.1C26.9,38.2,27,38.1,27.2,38.1z"/>
		<path d="M23,50.1c0.5,2.2,1,4.3,1.6,6.4c0.4,1.3,0.8,2.6,1.3,3.8c0.2,0.6,0.6,1.1,1.2,1.3c0.4,0.2,0.7,0.1,0.9-0.3
			c0.3-0.4,0.2-0.8-0.1-1.1C27,59,26.4,57.6,26,56.1c-0.3-1.2-0.7-2.3-0.9-3.5c-0.4-1.8-0.9-3.7-1.2-5.5c-0.2-1.3-0.2-2.7-0.3-4.1
			c0-0.3-0.1-0.5-0.3-0.5c-0.2,0-0.5,0.1-0.6,0.2c-0.2,0.4-0.3,0.9-0.3,1.3c0,0.9,0.1,1.9,0.1,2.8c0,0,0,0-0.1,0
			C22.6,48,22.7,49.1,23,50.1z"/>
		<path d="M78.6,84.4c-4.6-3.5-9.3-6.9-14-10.3c-2.7-2-5.3-3.9-8-5.9c-0.1-0.1-0.2-0.2-0.3-0.4c0-0.4,0-0.8-0.1-1.2
			c-0.1-1.3-0.8-2.2-1.9-2.6c-0.2-0.1-0.4-0.1-0.6-0.2c-0.5-0.2-1-0.3-1.5,0c-0.4,0.2-0.8,0.4-1.2,0.7c-0.4,0.4-0.9,0.5-1.4,0.6
			c-2.6,0.4-5.2,0.6-7.8,0.7c-1.9,0-3.8,0-5.7,0c-0.1,0-0.3,0-0.4,0c0-0.2,0-0.3,0-0.4c0-1.2,0-2.5,0-3.7c0-2.2,0.8-2.6,0.8-2.6
			c0.6-0.6,2.1-1.6,2.7-2.2c0.3-0.3,0.6-0.8,0.7-1.2c0.2-0.5,0.2-1.1-0.2-1.6c-0.3-0.5-0.8-0.4-1.3-0.4c-0.1,0-0.2-0.1-0.2-0.2
			c-0.1-0.5-0.2-1-0.3-1.5c-0.1-0.4,0-0.6,0.4-0.8c0.2-0.1,0.3-0.2,0.4-0.3c0.1-0.2,0.3-0.2,0.5-0.2c1,0.1,1.6-0.3,1.9-1.3
			c0.1-0.4,0.1-0.8,0.1-1.2s-0.2-0.7-0.5-1c-0.1-0.1-0.2-0.3-0.2-0.4c0.3-1.2,0.2-2.3,0-3.5c-0.2-0.9-0.7-1.2-1.5-0.8
			c-0.2,0.1-0.4,0.2-0.5,0.3c-0.4,0.4-0.8,0.8-1,1.3c-0.3,0.6-0.6,1.3-0.9,2c-0.1,0.1-0.1,0.3-0.2,0.3c-1.1,0.7-1.6,1.7-1.5,3
			c0,0.7,0.3,1,1,1.1c0.1,0,0.3,0.1,0.3,0.2c0.1,0.6,0.3,0.8,0.9,0.9c0,0.4,0,0.7,0,1.1c0,0.4,0.1,0.9,0.2,1.3
			c0.1,0.2,0,0.3-0.1,0.5C36.1,55.2,35,56,34,56.9c0,0-1.6,1.5-1.6,3.7c0,1.5,0,3,0,4.5c0,0.1,0,0.3,0,0.4c-0.4,0-0.7-0.1-1-0.1
			c-0.6-0.1-1.2-0.1-1.9-0.2c-0.5,0-1-0.1-1.5-0.1c-0.1,0-0.3,0.1-0.4,0.1c-0.2,0.2-0.4,0.3-0.6,0.5c-0.5,0.6-0.6,1.4-0.8,2.1
			c-0.1,0.3-0.1,0.6-0.3,0.9c-0.6,0.8-1.3,1.6-2,2.4c-1.5,1.9-2.9,3.8-4.4,5.7c-2.3,3.1-4.6,6.1-6.6,9.5c-1,1.7-2.2,3.2-3.3,4.7
			c-0.5,1-0.2,2.1,0.4,2.6c0.2,0.2,0.5,0.3,0.7,0.3c0.8,0,1.6-0.2,2.3-0.2c1.1-0.1,2.2-0.2,3.2-0.3c0.8-0.1,1.6-0.1,2.4-0.2
			c1.1-0.1,2.2-0.2,3.2-0.3c1.1-0.1,2.2-0.2,3.3-0.3c1.1-0.1,2.2-0.2,3.3-0.3c1-0.1,2.1-0.2,3.1-0.3c1.3-0.1,2.7-0.3,4-0.4
			s2.6-0.3,3.9-0.4c1.3-0.1,2.6-0.3,3.9-0.4c1.3-0.1,2.7-0.3,4-0.4s2.5-0.3,3.8-0.4s2.7-0.3,4-0.4s2.6-0.3,3.8-0.4
			c1.3-0.1,2.6-0.3,3.9-0.4s2.7-0.3,4-0.4s2.5-0.2,3.8-0.4c1.4-0.1,2.7-0.3,4.1-0.4c1.2-0.1,2.5-0.2,3.7-0.4c0.2,0,0.5-0.2,0.6-0.4
			C79.6,85.6,79.5,85.1,78.6,84.4z M35.1,57.3c0.8-0.7,1.7-1.4,2.5-2c0.3-0.3,0.6-0.5,1.1-0.4c0.2,0,0.4,0.2,0.5,0.4s0,0.3-0.2,0.5
			c-0.8,0.8-2.5,1.9-3.3,2.7c-1,0.9-0.8,2.9-0.8,2.9c0,0.8,0,1.7,0,2.5c0,2.1,0,4.1,0,6.2c0,1.9,0,3.8,0,5.7c0,0.5-0.2,0.7-0.7,0.7
			c-0.1,0-0.2,0-0.2,0c-0.5-0.1-0.5-0.1-0.5-0.6c0-0.9,0-1.8,0-2.7c0,0,0,0-0.1,0c0-2.7,0-5.4,0-8.1c0-1.4,0-2.7,0-4.1
			C33.4,60.9,33.2,58.8,35.1,57.3z M11.5,92c0.3-0.4,0.5-0.7,0.7-1c4-5.5,7.9-11.1,11.9-16.6c0.8-1.1,1.6-2.2,2.4-3.3
			c0.1-0.1,0.2-0.2,0.3-0.3c0.5-0.4,0.7-0.9,0.7-1.5c0-0.7,0.2-1.3,0.3-2c0-0.1,0.2-0.1,0.3-0.1c0.9,0.1,1.7,0.1,2.6,0.2
			c0.6,0,1.1,0.1,1.7,0.2c0,0.6,0,1.1,0,1.7c0,2.5,0,5,0,7.4c0,0.2,0,0.4-0.1,0.6c-0.1,0.3,0,0.6,0.3,0.7c0.6,0.3,1.8,0.4,2.5-0.2
			c0.4-0.3,0.8-0.6,0.8-1.2c0-0.2-0.1-0.5-0.1-0.7c0-1.7,0-3.3,0-5c0-0.9,0-1.9-0.1-2.8c0-0.4,0.1-0.4,0.4-0.4c2.1,0,4.3,0.1,6.4,0
			c2.6-0.1,5.1-0.2,7.6-0.8c0.5-0.1,1-0.4,1.4-0.7c0.9-0.5,1.9-0.4,2.4,0.4c0.3,0.5,0.4,1.1,0.2,1.7c-0.1,0.6-0.1,0.6,0.4,1
			c7.3,5.4,14.6,10.8,21.8,16.2c0.1,0.1,0.2,0.1,0.3,0.2C55,87.7,33.3,89.9,11.5,92z"/>
		<path d="M28.6,44.3c0.2,0,0.4,0,0.6,0c1.1,0,1.9-0.5,2.5-1.3c0.4-0.6,0.6-1.3,0.3-1.9c-0.4-0.7-1.1-1.3-1.9-1.5
			c-1.2-0.2-2.3,0-3.4,0.7c-0.7,0.4-1.1,1-1.1,1.8c0,1,0.4,1.7,1.4,2C27.5,44.3,28.1,44.3,28.6,44.3C28.6,44.4,28.6,44.3,28.6,44.3z
			 M30,41.1c0.4,0.3,0.9,0.5,0.9,1.1c0,0.1-0.1,0.4-0.2,0.4c-0.3,0.2-0.7,0.3-1,0.4C29.8,42.4,29.9,41.8,30,41.1z"/>
		<path d="M59.4,50.6c-0.3-0.1-0.5-0.1-0.7,0.2c-0.3,0.5-0.6,1-0.6,1.6c0.1,0.2,0.1,0.4,0.2,0.5c0.2,0,0.4,0,0.6-0.1
			c0.1,0,0.2-0.1,0.2-0.2c0.2-0.5,0.4-0.9,0.5-1.4C59.7,51,59.6,50.7,59.4,50.6z"/>
		<path d="M56.3,56.6c0-0.1-0.2-0.3-0.3-0.3s-0.3,0.1-0.3,0.2c-0.1,0.3-0.3,0.5-0.3,0.8c-0.2,0.8-0.5,1.6-0.7,2.4
			c-0.1,0.2-0.1,0.4-0.2,0.7c0,0.3-0.1,0.6,0.2,0.7c0.3,0.1,0.5-0.1,0.7-0.4c0.1-0.1,0.2-0.3,0.3-0.5s0.2-0.5,0.2-0.7
			c0.2-0.8,0.4-1.5,0.6-2.3h-0.1C56.3,57,56.3,56.8,56.3,56.6z"/>
		<path d="M50.2,37.5c0.1,0,0.2-0.2,0.3-0.2c-0.1-0.1-0.2-0.1-0.3-0.1c-1,0-2,0-2.9-0.1c-0.2,0-0.3,0-0.3,0.2c0,0.1,0.2,0.2,0.3,0.2
			c0.5,0,1,0,1.5,0l0,0C49.2,37.5,49.7,37.5,50.2,37.5z"/>
		<path d="M45.9,41.6c-0.1,0.8,0,1.2,0.8,1.5c0.6,0.3,1.3,0.5,2,0.5c1.6,0.1,2.9-1.5,3-2.8c0-0.7-0.2-1.2-0.8-1.4
			c-0.5-0.2-1.1-0.3-1.6-0.4v0.1c-0.1,0-0.2,0-0.3,0C47.3,39.1,46.1,40.1,45.9,41.6z M49.7,40.5c0.1,0,0.2,0.1,0.3,0.1
			c0.7,0.3,0.8,0.7,0.2,1.3c-0.2,0.2-0.4,0.3-0.6,0.4C49.7,41.6,49.7,41.1,49.7,40.5z"/>
		<path d="M33,58.4c0.4,0.3,0.8,0.5,1.3,0.7c0.4,0.2,0.8,0.2,1.2,0.4c0-0.1,0-0.2,0-0.3l0,0c-0.3,0.3,0.4,0.3,0.6,0.1l0,0
			c0.1-0.1,0.1-0.2,0-0.3c-0.3-0.2-0.7-0.2-1-0.4c-0.5-0.2-0.9-0.4-1.3-0.7C33.5,58,32.8,58.3,33,58.4L33,58.4z"/>
		<path d="M33.9,57.7c0.3,0.1,0.6,0.4,0.9,0.6c0.3,0.2,0.6,0.3,0.9,0.4c0.2,0,0.4,0,0.5-0.1c0.1,0,0.3-0.2,0.1-0.2
			c-0.4-0.1-0.7-0.2-1-0.4s-0.5-0.4-0.8-0.5C34.4,57.3,33.7,57.6,33.9,57.7L33.9,57.7z"/>
		<path d="M32.9,59.8c0.8,0.2,1.5,0.4,2.3,0.6c0.2,0,0.4,0,0.5-0.1c0.1-0.1,0.1-0.3-0.1-0.3c-0.8-0.2-1.5-0.3-2.3-0.6
			C33.1,59.3,32.4,59.7,32.9,59.8L32.9,59.8z"/>
		<g>
			<path d="M23,30.8c-0.9,1.3-1.7,2.7-2.1,4.3c-0.1,0.3-0.1,0.6-0.1,0.8s0.2,0.4,0.3,0.4c0.7,0,1.5,0.1,2.2,0c2.7-0.4,5.3-0.7,8-0.7
				c1.3,0,1.9-0.9,2-2c0-0.2,0-0.4,0.1-0.6c0.1-0.3,0.3-0.4,0.6-0.4c-6.4,0-10.8-2.1-10.8-2.1C23.1,30.6,23,30.7,23,30.8z"/>
			<path d="M61.7,48.6c-0.6-1-1.6-1.6-2.8-1.7c-0.6-0.1-0.6,0-0.6-0.7c0-0.1,0-0.2,0-0.4c0.1-0.7,0.2-1.5,0.2-2.2
				c0.1-2.3-0.1-4.5-0.7-6.7c-0.2-0.7-0.5-1.3-0.2-2.1v-0.1c0-0.8,0-1.7-0.1-2.5c-0.1-1-0.5-2-1.1-2.8c-0.1-0.2-0.1-0.3,0-0.4
				c-2.5,3.1-18.7,3.5-18.7,3.5c0.6,0,0.8,0.1,0.9,0.7c0.1,0.5,0.1,1.1,0.1,1.6c0,0.7,0.2,0.9,0.9,0.8c0.8-0.1,1.6-0.2,2.4-0.2
				c1.8,0,3.6,0,5.4,0c0.5,0,1.1-0.1,1.6-0.1c1-0.1,1.9-0.2,2.9-0.2c0.9,0,1.9,0,2.8,0.1c0.3,0,0.6,0.3,0.9,0.5
				c0.2,0.3,0.3,0.6,0.4,0.9c0.7,1.8,1.2,3.7,1.2,5.6c0.1,1.9-0.2,3.8-0.3,5.7c0,0.6,0.1,0.7,0.7,0.6c0.4-0.1,0.8-0.1,1.1,0.1
				c1.5,0.6,2.3,1.7,2.3,3.4c0,0.6-0.2,1-0.8,1.2s-0.9,0.6-1,1.2c-0.1,0.5,0.1,0.8,0.6,0.6c0.7-0.2,1.2-0.5,1.6-1.1
				C62.7,52.6,62.5,50,61.7,48.6z"/>
			<path class="st1" d="M56.5,29.1c1-1.5,1.3-3.2,1.2-4.9c-0.1-1.2-0.3-2.5-0.5-3.7c-0.6-2.7-2-4.8-4.5-6.1s-5.1-1.9-7.9-2.1
				c-0.7-0.1-1.4-0.1-2.1-0.2c-0.1,0-0.3-0.2-0.4-0.3c-0.2-0.2-0.3-0.4-0.4-0.6c-0.5-0.6-1-1-1.7-1.3c-0.1,0-0.2,0-0.3,0
				c-0.3,0.3-0.6,0.6-0.9,1c-0.1,0.1-0.2,0.3-0.3,0.5c-0.2,0.3-0.3,0.5-0.7,0.5c-1.5,0.3-3.1,0.6-4.6,0.9c-2.1,0.4-4.1,1.4-5.7,2.9
				c-1.6,1.5-2.8,3.4-3.7,5.4c-0.5,1.1-0.9,2.3-1.2,3.4c-0.4,1.4-0.3,2.9-0.4,4.3c0,0.7,0.2,1.2,0.7,1.7c0,0,4.4,2.1,10.8,2.1
				c1.3,0,2.6,0,3.9,0C37.9,32.6,54,32.2,56.5,29.1z M42,27.3c0.1-0.1,0.4-0.2,0.6-0.2c2.6,0.1,5.3,0.2,7.9,0.6c0.1,0,0.2,0,0.3,0.2
				c-0.2,0-0.3,0.1-0.5,0.1c-3.1,0.5-6.2,1-9.3,1.5c-0.2,0-0.4,0-0.6,0c0-0.1,0-0.1-0.1-0.2C40.8,28.6,41.4,27.9,42,27.3z
				 M33.7,27.1c2.5,0,5-0.1,7.6-0.1c-0.1,0.3-0.1,0.5-0.2,0.6c-0.3,0.5-0.7,1-1.1,1.5c-0.1,0.1-0.2,0.1-0.3,0.1s-0.2,0-0.4,0
				c-0.6,0.2-1.1,0-1.6-0.2c-1.3-0.5-2.5-0.9-3.8-1.4c-0.1,0-0.2-0.2-0.3-0.2C33.7,27.2,33.7,27.2,33.7,27.1z M39.9,29.8
				c-0.4,0-0.7,0-1,0C39.2,29.5,39.5,29.5,39.9,29.8z M30.9,22.9c0.1-0.3,0.3-0.4,0.6-0.4c0.3,0.1,0.4,0.3,0.5,0.6
				c-0.1,0.4-0.2,0.7-0.4,1c-0.1,0.1-0.3,0.2-0.5,0.2c-0.1,0-0.3-0.3-0.3-0.4C30.8,23.7,30.8,23.3,30.9,22.9z M28.7,19.8
				c0.1-0.1,0.4-0.2,0.6-0.2c0.3,0,0.3,0.3,0.2,0.5c-0.1,0.5-0.2,1.1-0.6,1.5c-0.1,0.1-0.4,0.2-0.6,0.2c-0.1,0-0.2-0.3-0.3-0.5
				C28.1,20.7,28.3,20.2,28.7,19.8z M26.5,24.5c0.1-0.2,0.3-0.3,0.5-0.3s0.4,0.2,0.5,0.4c0.1,0.5,0,1-0.2,1.5
				c-0.1,0.2-0.4,0.3-0.6,0.3c-0.3,0-0.3-0.3-0.3-0.5c0-0.1,0-0.2,0-0.4c0,0,0,0-0.1,0C26.3,25.2,26.3,24.8,26.5,24.5z M26.2,30.2
				c-0.2-0.1-0.5-0.1-0.6-0.3c-0.2-0.2-0.1-0.6,0.1-0.8c0.3-0.3,0.6-0.5,1-0.7c1.2-0.6,2.6-0.8,3.9-1c1-0.2,1.9,0,2.8,0.3
				c1.5,0.6,3.1,1.1,4.6,1.7c0.1,0,0.2,0.1,0.2,0.1v0.1c-0.6,0-1.2,0.1-1.8,0.1c-3.2,0.2-6.5,0.3-9.7,0.5
				C26.5,30.2,26.3,30.3,26.2,30.2z M39,31.8c-2.1,0.5-10.7-0.1-12.1-1c0.2-0.1,0.3-0.2,0.5-0.2c1.4-0.1,2.8-0.1,4.2-0.2
				c1.9-0.1,3.9-0.2,5.8-0.3c0.6,0,1.2,0.1,1.8,0.2C39.1,30.8,39.1,31.3,39,31.8z M45.3,31.4c-1.7,0.1-3.5,0.3-5.2,0.4
				c-0.5,0-0.7-0.2-0.7-0.7c0-0.1,0-0.1,0-0.2c0.1-0.6,0.1-0.7,0.7-0.6c1.7,0.3,3.5,0.6,5.2,0.8c0,0,0.1,0,0.1,0.1v0.1
				C45.5,31.3,45.4,31.4,45.3,31.4z M53.9,29.8c-0.4,0.3-0.9,0.5-1.4,0.6c-1.5,0.3-2.9,0.6-4.4,0.7c-0.7,0.1-1.4-0.2-2.2-0.3
				c-1.5-0.2-3-0.5-4.5-0.7c-0.1,0-0.2-0.1-0.3-0.1c0,0,0,0,0-0.1c0.5-0.1,1-0.2,1.5-0.2c3.1-0.5,6.2-1,9.3-1.5
				c0.8-0.1,1.5,0.1,2.2,0.6C54.3,29,54.3,29.5,53.9,29.8z"/>
		</g>
		<g>
			<path d="M23,30.8c-0.9,1.3-1.7,2.7-2.1,4.3c-0.1,0.3-0.1,0.6-0.1,0.8s0.2,0.4,0.3,0.4c0.7,0,1.5,0.1,2.2,0c2.7-0.4,5.3-0.7,8-0.7
				c1.3,0,1.9-0.9,2-2c0-0.2,0-0.4,0.1-0.6c0.1-0.3,0.3-0.4,0.6-0.4c-6.4,0-10.8-2.1-10.8-2.1C23.1,30.6,23,30.7,23,30.8z"/>
			<path d="M61.7,48.6c-0.6-1-1.6-1.6-2.8-1.7c-0.6-0.1-0.6,0-0.6-0.7c0-0.1,0-0.2,0-0.4c0.1-0.7,0.2-1.5,0.2-2.2
				c0.1-2.3-0.1-4.5-0.7-6.7c-0.2-0.7-0.5-1.3-0.2-2.1v-0.1c0-0.8,0-1.7-0.1-2.5c-0.1-1-0.5-2-1.1-2.8c-0.1-0.2-0.1-0.3,0-0.4
				c-2.5,3.1-18.7,3.5-18.7,3.5c0.6,0,0.8,0.1,0.9,0.7c0.1,0.5,0.1,1.1,0.1,1.6c0,0.7,0.2,0.9,0.9,0.8c0.8-0.1,1.6-0.2,2.4-0.2
				c1.8,0,3.6,0,5.4,0c0.5,0,1.1-0.1,1.6-0.1c1-0.1,1.9-0.2,2.9-0.2c0.9,0,1.9,0,2.8,0.1c0.3,0,0.6,0.3,0.9,0.5
				c0.2,0.3,0.3,0.6,0.4,0.9c0.7,1.8,1.2,3.7,1.2,5.6c0.1,1.9-0.2,3.8-0.3,5.7c0,0.6,0.1,0.7,0.7,0.6c0.4-0.1,0.8-0.1,1.1,0.1
				c1.5,0.6,2.3,1.7,2.3,3.4c0,0.6-0.2,1-0.8,1.2s-0.9,0.6-1,1.2c-0.1,0.5,0.1,0.8,0.6,0.6c0.7-0.2,1.2-0.5,1.6-1.1
				C62.7,52.6,62.5,50,61.7,48.6z"/>
			<path class="st1" d="M56.5,29.1c1-1.5,1.3-3.2,1.2-4.9c-0.1-1.2-0.3-2.5-0.5-3.7c-0.6-2.7-2-4.8-4.5-6.1s-5.1-1.9-7.9-2.1
				c-0.7-0.1-1.4-0.1-2.1-0.2c-0.1,0-0.3-0.2-0.4-0.3c-0.2-0.2-0.3-0.4-0.4-0.6c-0.5-0.6-1-1-1.7-1.3c-0.1,0-0.2,0-0.3,0
				c-0.3,0.3-0.6,0.6-0.9,1c-0.1,0.1-0.2,0.3-0.3,0.5c-0.2,0.3-0.3,0.5-0.7,0.5c-1.5,0.3-3.1,0.6-4.6,0.9c-2.1,0.4-4.1,1.4-5.7,2.9
				c-1.6,1.5-2.8,3.4-3.7,5.4c-0.5,1.1-0.9,2.3-1.2,3.4c-0.4,1.4-0.3,2.9-0.4,4.3c0,0.7,0.2,1.2,0.7,1.7c0,0,4.4,2.1,10.8,2.1
				c1.3,0,2.6,0,3.9,0C37.9,32.6,54,32.2,56.5,29.1z M42,27.3c0.1-0.1,0.4-0.2,0.6-0.2c2.6,0.1,5.3,0.2,7.9,0.6c0.1,0,0.2,0,0.3,0.2
				c-0.2,0-0.3,0.1-0.5,0.1c-3.1,0.5-6.2,1-9.3,1.5c-0.2,0-0.4,0-0.6,0c0-0.1,0-0.1-0.1-0.2C40.8,28.6,41.4,27.9,42,27.3z
				 M33.7,27.1c2.5,0,5-0.1,7.6-0.1c-0.1,0.3-0.1,0.5-0.2,0.6c-0.3,0.5-0.7,1-1.1,1.5c-0.1,0.1-0.2,0.1-0.3,0.1s-0.2,0-0.4,0
				c-0.6,0.2-1.1,0-1.6-0.2c-1.3-0.5-2.5-0.9-3.8-1.4c-0.1,0-0.2-0.2-0.3-0.2C33.7,27.2,33.7,27.2,33.7,27.1z M39.9,29.8
				c-0.4,0-0.7,0-1,0C39.2,29.5,39.5,29.5,39.9,29.8z M30.9,22.9c0.1-0.3,0.3-0.4,0.6-0.4c0.3,0.1,0.4,0.3,0.5,0.6
				c-0.1,0.4-0.2,0.7-0.4,1c-0.1,0.1-0.3,0.2-0.5,0.2c-0.1,0-0.3-0.3-0.3-0.4C30.8,23.7,30.8,23.3,30.9,22.9z M28.7,19.8
				c0.1-0.1,0.4-0.2,0.6-0.2c0.3,0,0.3,0.3,0.2,0.5c-0.1,0.5-0.2,1.1-0.6,1.5c-0.1,0.1-0.4,0.2-0.6,0.2c-0.1,0-0.2-0.3-0.3-0.5
				C28.1,20.7,28.3,20.2,28.7,19.8z M26.5,24.5c0.1-0.2,0.3-0.3,0.5-0.3s0.4,0.2,0.5,0.4c0.1,0.5,0,1-0.2,1.5
				c-0.1,0.2-0.4,0.3-0.6,0.3c-0.3,0-0.3-0.3-0.3-0.5c0-0.1,0-0.2,0-0.4c0,0,0,0-0.1,0C26.3,25.2,26.3,24.8,26.5,24.5z M26.2,30.2
				c-0.2-0.1-0.5-0.1-0.6-0.3c-0.2-0.2-0.1-0.6,0.1-0.8c0.3-0.3,0.6-0.5,1-0.7c1.2-0.6,2.6-0.8,3.9-1c1-0.2,1.9,0,2.8,0.3
				c1.5,0.6,3.1,1.1,4.6,1.7c0.1,0,0.2,0.1,0.2,0.1v0.1c-0.6,0-1.2,0.1-1.8,0.1c-3.2,0.2-6.5,0.3-9.7,0.5
				C26.5,30.2,26.3,30.3,26.2,30.2z M39,31.8c-2.1,0.5-10.7-0.1-12.1-1c0.2-0.1,0.3-0.2,0.5-0.2c1.4-0.1,2.8-0.1,4.2-0.2
				c1.9-0.1,3.9-0.2,5.8-0.3c0.6,0,1.2,0.1,1.8,0.2C39.1,30.8,39.1,31.3,39,31.8z M45.3,31.4c-1.7,0.1-3.5,0.3-5.2,0.4
				c-0.5,0-0.7-0.2-0.7-0.7c0-0.1,0-0.1,0-0.2c0.1-0.6,0.1-0.7,0.7-0.6c1.7,0.3,3.5,0.6,5.2,0.8c0,0,0.1,0,0.1,0.1v0.1
				C45.5,31.3,45.4,31.4,45.3,31.4z M53.9,29.8c-0.4,0.3-0.9,0.5-1.4,0.6c-1.5,0.3-2.9,0.6-4.4,0.7c-0.7,0.1-1.4-0.2-2.2-0.3
				c-1.5-0.2-3-0.5-4.5-0.7c-0.1,0-0.2-0.1-0.3-0.1c0,0,0,0,0-0.1c0.5-0.1,1-0.2,1.5-0.2c3.1-0.5,6.2-1,9.3-1.5
				c0.8-0.1,1.5,0.1,2.2,0.6C54.3,29,54.3,29.5,53.9,29.8z"/>
		</g>
		<path d="M56.5,29.1c1-1.5,1.3-3.2,1.2-4.9c-0.1-1.2-0.3-2.5-0.5-3.7c-0.6-2.7-2-4.8-4.5-6.1s-5.1-1.9-7.9-2.1
			c-0.7-0.1-1.4-0.1-2.1-0.2c-0.1,0-0.3-0.2-0.4-0.3c-0.2-0.2-0.3-0.4-0.4-0.6c-0.5-0.6-1-1-1.7-1.3c-0.1,0-0.2,0-0.3,0
			c-0.3,0.3-0.6,0.6-0.9,1c-0.1,0.1-0.2,0.3-0.3,0.5c-0.2,0.3-0.3,0.5-0.7,0.5c-1.5,0.3-3.1,0.6-4.6,0.9c-2.1,0.4-4.1,1.4-5.7,2.9
			c-1.6,1.5-2.8,3.4-3.7,5.4c-0.5,1.1-0.9,2.3-1.2,3.4c-0.4,1.4-0.3,2.9-0.4,4.3c0,0.7,0.2,1.2,0.7,1.7c0,0,4.4,2.1,10.8,2.1
			c1.3,0,2.6,0,3.9,0C37.9,32.6,54,32.2,56.5,29.1z M42,27.3c0.1-0.1,0.4-0.2,0.6-0.2c2.6,0.1,5.3,0.2,7.9,0.6c0.1,0,0.2,0,0.3,0.2
			c-0.2,0-0.3,0.1-0.5,0.1c-3.1,0.5-6.2,1-9.3,1.5c-0.2,0-0.4,0-0.6,0c0-0.1,0-0.1-0.1-0.2C40.8,28.6,41.4,27.9,42,27.3z M33.7,27.1
			c2.5,0,5-0.1,7.6-0.1c-0.1,0.3-0.1,0.5-0.2,0.6c-0.3,0.5-0.7,1-1.1,1.5c-0.1,0.1-0.2,0.1-0.3,0.1s-0.2,0-0.4,0
			c-0.6,0.2-1.1,0-1.6-0.2c-1.3-0.5-2.5-0.9-3.8-1.4c-0.1,0-0.2-0.2-0.3-0.2C33.7,27.2,33.7,27.2,33.7,27.1z M39.9,29.8
			c-0.4,0-0.7,0-1,0C39.2,29.5,39.5,29.5,39.9,29.8z M30.9,22.9c0.1-0.3,0.3-0.4,0.6-0.4c0.4,0.1,0.5,0.5,0.4,0.8
			c-0.1,0.4-0.3,1.1-0.9,1.1c-0.1,0-0.3-0.3-0.3-0.4C30.8,23.7,30.8,23.3,30.9,22.9z M28.7,19.8c0.1-0.1,0.4-0.2,0.6-0.2
			c0.3,0,0.3,0.3,0.2,0.5c-0.1,0.5-0.2,1.1-0.6,1.5c-0.3,0.4-0.8,0.2-0.9-0.3C28,20.8,28.4,20.2,28.7,19.8z M26.5,24.5
			c0.1-0.2,0.3-0.3,0.5-0.3s0.4,0.2,0.5,0.4c0.1,0.5,0,1-0.2,1.5c-0.1,0.2-0.4,0.3-0.6,0.3C25.9,26.4,26.3,24.8,26.5,24.5z
			 M26.2,30.2c-0.2-0.1-0.5-0.1-0.6-0.3c-0.2-0.2-0.1-0.6,0.1-0.8c0.3-0.3,0.6-0.5,1-0.7c1.2-0.6,2.6-0.8,3.9-1c1-0.2,1.9,0,2.8,0.3
			c1.5,0.6,3.1,1.1,4.6,1.7c0.1,0,0.2,0.1,0.2,0.1v0.1c-0.6,0-1.2,0.1-1.8,0.1c-3.2,0.2-6.5,0.3-9.7,0.5
			C26.5,30.2,26.3,30.3,26.2,30.2z M39,31.8c-2.1,0.5-10.7-0.1-12.1-1c0.2-0.1,0.3-0.2,0.5-0.2c1.4-0.1,2.8-0.1,4.2-0.2
			c1.9-0.1,3.9-0.2,5.8-0.3c0.6,0,1.2,0.1,1.8,0.2C39.1,30.8,39.1,31.3,39,31.8z M45.3,31.4c-1.7,0.1-3.5,0.3-5.2,0.4
			c-0.5,0-0.7-0.2-0.7-0.7c0-0.1,0-0.1,0-0.2c0.1-0.6,0.1-0.7,0.7-0.6c1.7,0.3,3.5,0.6,5.2,0.8c0,0,0.1,0,0.1,0.1v0.1
			C45.5,31.3,45.4,31.4,45.3,31.4z M53.9,29.8c-0.4,0.3-0.9,0.5-1.4,0.6c-1.5,0.3-2.9,0.6-4.4,0.7c-0.7,0.1-1.4-0.2-2.2-0.3
			c-1.5-0.2-3-0.5-4.5-0.7c-0.1,0-0.2-0.1-0.3-0.1c0,0,0,0,0-0.1c0.5-0.1,1-0.2,1.5-0.2c3.1-0.5,6.2-1,9.3-1.5
			c0.8-0.1,1.5,0.1,2.2,0.6C54.3,29,54.3,29.5,53.9,29.8z"/>
		<path d="M35.9,43.9c-0.4,3.1-2.5,5.8-5.5,6.9c-3,1.1-6.5,0.2-8.6-2.3c-2.2-2.6-2.4-6.3-0.8-9.2c1.5-2.7,4.6-4.3,7.6-4.1
			c3.8,0.3,6.8,3.3,7.2,7c0,0.4,0.8,0.9,0.7,0.2c-0.4-3.5-2.6-6.6-5.9-7.8c-3.4-1.2-7.2-0.1-9.5,2.7s-2.6,6.8-0.9,10
			c1.6,3.1,5,5,8.5,4.7c4.1-0.4,7.3-3.7,7.8-7.8C36.6,43.9,35.9,43.3,35.9,43.9L35.9,43.9z"/>
		<path d="M41.1,42.3c0.3-3.1,2.4-5.8,5.4-6.8c3-1.1,6.6-0.3,8.8,2.1c2.2,2.4,2.6,6,1.1,8.8s-4.5,4.4-7.6,4.3
			c-3.7-0.2-7-2.9-7.6-6.6c-0.1-0.4-0.8-0.9-0.7-0.2c0.5,3.4,2.9,6.3,6.2,7.4c3.5,1.1,7.4-0.1,9.6-3c2.1-2.8,2.3-6.7,0.5-9.7
			c-1.7-3-5.2-4.8-8.7-4.5c-4.1,0.4-7.3,3.7-7.7,7.8C40.4,42.2,41,42.9,41.1,42.3L41.1,42.3z"/>
		<path d="M35.8,43.6c1-1.7,4.3-1.5,5.3,0c0.3,0.5,1.2,0,0.9-0.4c-1.5-2.3-5.8-2.1-7.1,0.2C34.6,43.9,35.5,44.1,35.8,43.6L35.8,43.6
			z"/>
		<path d="M33.7,58c-0.3-0.1-0.5-0.4-0.4-0.7c0.1-0.3,0.4-0.5,0.7-0.4c0.3,0.1,0.5,0.4,0.4,0.7C34.3,57.9,34,58.1,33.7,58z"/>
		<path d="M33.1,58.9c-0.3-0.1-0.5-0.4-0.4-0.7s0.4-0.5,0.7-0.4c0.3,0.1,0.5,0.4,0.4,0.7C33.7,58.8,33.4,59,33.1,58.9z"/>
		<path d="M33.4,59.6c-0.1,0.3-0.4,0.4-0.7,0.3c-0.3-0.1-0.4-0.4-0.3-0.7c0.1-0.3,0.4-0.4,0.7-0.3C33.3,59,33.5,59.3,33.4,59.6z"/>
		<path d="M35.5,60.7c-0.2-0.1-0.3-0.3-0.3-0.5c0.1-0.2,0.3-0.3,0.5-0.3c0.2,0.1,0.3,0.3,0.3,0.5C36,60.6,35.8,60.7,35.5,60.7z"/>
		<path d="M35.8,59.9c-0.2-0.1-0.3-0.3-0.3-0.5c0.1-0.2,0.3-0.3,0.5-0.3c0.2,0.1,0.3,0.3,0.3,0.5C36.3,59.8,36,60,35.8,59.9z"/>
		<path d="M36.2,59.3c-0.2-0.1-0.3-0.3-0.3-0.5c0.1-0.2,0.3-0.3,0.5-0.3c0.2,0.1,0.3,0.3,0.3,0.5C36.6,59.2,36.4,59.3,36.2,59.3z"/>
	</g>
</g>
</svg>
